<?xml version="1.0" encoding="utf-8"?>
<!-- Generator: Adobe Illustrator 16.0.3, SVG Export Plug-In . SVG Version: 6.00 Build 0)  -->
<!DOCTYPE svg PUBLIC "-//W3C//DTD SVG 1.1//EN" "http://www.w3.org/Graphics/SVG/1.1/DTD/svg11.dtd">
<svg version="1.1" id="Layer_1" xmlns="http://www.w3.org/2000/svg" xmlns:xlink="http://www.w3.org/1999/xlink" x="0px" y="0px"
	 width="308.67px" height="30px" viewBox="0 0 308.67 30" enable-background="new 0 0 308.67 30" xml:space="preserve">
<g fill="#000000">
	<path d="M236.52,13.41c-0.51,5.23-4.01,7.48-7.9,9.33c-0.23,1.67-1.39,3.97-0.36,5.74c0.42-0.06,0.64,0.08,0.72,0.36
		c3-1.3,5.09-3.52,7.89-5.02c0.71,0.96-1.25,2.32-2.51,2.51c-1.92,4.62-10.61,5.98-7.9-2.51c-0.58-0.86-2.48-0.39-2.51-1.8
		c0.07-1.67,1.98-0.14,2.87-0.36C229.65,18.84,231.07,11.26,236.52,13.41z M230.78,19.51c1.31-1.21,2.83-2.19,3.59-3.95
		C232.75,16.22,230.55,18.2,230.78,19.51z"/>
	<path d="M38.94,0c-0.18,1.7-4.49,6.27-5.93,8.11c-3.18,4.07-6.53,10.22-9.33,15.07c-1.01,1.75-2.49,5.77-4.67,6.1
		c-5.54,0.83-8.08-9.83-8.61-15.07c-3,3.48-5.2,8.02-7.54,12.2C2.14,27.72,1.75,29.76,0,30c1.7-4.02,3.28-7.97,5.38-11.84
		c1.43-2.63,3.27-5.39,5.38-7.18c2.17,1.77,1.56,5.18,2.15,7.9c0.79,3.63,2.18,6.87,5.02,8.61c2.4-0.81,3.27-3.71,4.67-5.74
		c1.39-2.03,2.68-3.97,3.95-6.1c1.95-3.28,3.7-6.08,6.1-8.97C33.96,5.11,37.09,0.77,38.94,0z"/>
	<path d="M306.99,8.28h1.44c1.18,3.48-2.29,5.95-1.44,9.69c-2.78,2.96-2.77,8.71-5.38,11.85c-4.86,1.01-8.96-2.34-8.61-5.75
		c0.45-4.37,7.54-4.18,11.13-6.1C305.42,15.09,306.5,10.88,306.99,8.28z M295.5,23c-1.85,3.2,2.45,5.82,5.38,4.31
		c1.02-2.09,1.72-4.51,2.51-6.82C300.13,20.69,298.57,22.6,295.5,23z"/>
	<path d="M154.16,15.81c-0.04,2.95-0.82,5.16-1.79,7.18c2.67-1.63,4.15-4.47,7.18-5.74c1.13-0.17,0.95,0.97,1.79,1.08
		c-0.19,2.44-1.08,4.18-1.79,6.1c3.13-1.42,5.68-6.52,10.05-7.9c2.16,0.59,0.87,4.63,2.15,6.1c1.79,0.63,2.57-0.72,5.03-0.36
		c-2.6,3.53-8.04,3.1-7.9-2.87c-1.87,0.29-3.4,2.43-5.02,3.95c-1.68,1.58-3.27,3.5-5.38,4.31c-0.01-0.35-0.44-0.28-0.72-0.36
		c-1.18-2.58,0.71-4.97,1.08-7.18c-2.16,0.24-3.84,4.06-6.1,5.38c-0.87,1.83-1.72,5.38-4.31,4.31c0.12-3.74,3.22-7.53,3.23-12.56
		c-2.29,0.58-2.86,2.89-5.02,3.59c-0.63,1.16-0.87,2.72-2.87,2.51c-0.93-2.48,1.77-3.77,3.23-5.02c1.55-1.33,3.31-2.8,5.03-3.59
		C152.76,15.05,153.6,15.29,154.16,15.81z"/>
	<path d="M88.88,14.21c0.83,1.56,1.17,3.62,2.51,4.67c-0.09,3.29-0.69,5.94,1.43,7.54c3.95-0.6,5.46-3.63,8.61-5.03
		c0.75,1.1-2.89,3.3-4.31,4.67c-1.42,1.37-3.91,3.59-6.1,1.79c-1.55-1.26-1.59-4.05-1.8-7.54c-3.85,2.49-5.51,7.17-9.33,9.69
		c-3.5-0.54-0.98-5.02,0.36-7.54c1.27-2.37,2.71-4.65,4.31-6.82C85.04,15.04,87.27,13.89,88.88,14.21z M80.26,27.84
		c1.1-1.78,2.87-3.28,4.31-5.02c1.35-1.64,3.2-3.44,3.23-5.38C83.78,17.75,80.54,23.79,80.26,27.84L80.26,27.84z"/>
</g>
</svg>
