<?xml version="1.0" encoding="utf-8"?>
<!-- Generator: Adobe Illustrator 23.0.1, SVG Export Plug-In . SVG Version: 6.00 Build 0)  -->
<svg version="1.1" id="Layer_1" xmlns="http://www.w3.org/2000/svg" xmlns:xlink="http://www.w3.org/1999/xlink" x="0px" y="0px"
	 viewBox="0 0 175 65" style="enable-background:new 0 0 175 65;" xml:space="preserve">
<style type="text/css">
	.st0{fill:#414141;}
</style>
<g>
	<path class="st0" d="M18.5,28.08c-2.57-2.14-3.98-4.16-3.98-6.47c0-3.18,3.62-7.8,9.44-12.05c5.71-4.17,12.07-6.86,16.2-6.86
		c4.54,0,5.06,2.39,5.06,4.19c0,5.96-7.94,13.01-14.8,14.69l-0.14,0.04c-0.16,0.04-0.37,0.33-0.34,0.49l-0.24,1.1
		c0.03,0.17,0.2,0.27,0.36,0.23l0.3-0.07c3.72-0.9,7.87-3.28,11.12-6.38c3.46-3.3,4.42-6.98,4.42-10.1c0-2.2,0.13-5.89-5.76-5.89
		c-4.54,0-11.15,2.77-17.24,7.23c-6.33,4.63-10.11,9.63-10.11,13.38c0,3.15,1.75,5.47,4.68,7.92c3.07,2.58,6.25,5.24,6.25,8.95
		c0,4.06-4.48,9.69-12.88,9.69c-4.57,0-7.64-1.91-7.64-4.75c0-3.53,4.9-6.64,9.47-7.33l-0.24,0.04c0.17-0.03,0.38-0.12,0.35-0.29
		l0.23-1.25c-0.03-0.16-0.18-0.26-0.34-0.24l-0.28,0.04c-5.91,0.88-10.9,5.01-10.9,9.03c0,3.8,2.83,6.46,8.33,6.46
		c4.15,0,8.97-1.36,11.74-3.84c2.42-2.16,3.86-4.98,3.86-7.56C25.44,33.87,21.75,30.8,18.5,28.08z"/>
	<path class="st0" d="M173.99,23.52c-0.07-2.09-0.89-3.84-2.44-5.2l-0.03-0.03c-0.02-0.01-0.19-0.14-0.47-0.31
		c-0.04-0.02-0.07-0.04-0.11-0.06c-0.39-0.22-0.97-0.5-1.74-0.74l-1.15,1.38c1.5,0.34,2.34,0.92,2.45,1
		c1.2,1.06,1.81,2.37,1.86,4.01c0.19,5.4-5.7,12.35-7.75,14.6c-0.06,0.03-0.12,0.07-0.17,0.13l-0.04,0.05
		c-4.54,5.31-9.22,8.49-12.51,8.49c-0.93,0-1.69-0.37-2.16-1.05c-0.6-0.88-0.66-2.23-0.17-3.86c0.07-0.22,0.28-0.37,0.51-0.37
		c8.09,0.01,12.14-5.38,12.14-8.38c0-1.8-1.12-2.96-2.86-2.96c-0.44,0-0.91,0.07-1.41,0.2c-0.52,0.14-0.89-0.49-0.52-0.87
		c3.85-3.93,7.48-7.75,10.23-11.07c0,0,0.01,0,0.01,0l1.13-1.42c0,0,0,0,0,0c2.35-3,3.81-5.49,3.81-7.14c0-0.9-0.61-1.83-1.62-1.83
		c-1.38,0-4.22,2.86-8.45,8.18c-13.03-0.8-37.85,1.35-66.06,4.03c-12.3,1.17-31.61,2.1-35.55,2.1c-0.1,0-0.19,0-0.29,0
		c-4.22-0.05-7.14-1.05-8.43-2.87c-1.31-1.84-0.61-4.02-0.6-4.05c0.14-0.41-0.08-0.86-0.5-1.01c-0.42-0.14-0.87,0.08-1.01,0.49
		c-0.04,0.12-0.98,2.95,0.8,5.46c1.62,2.3,4.89,3.49,9.72,3.56c3.81,0.05,23.35-0.9,36.01-2.1c19.71-1.87,49.54-4.7,64.71-4.08
		c0,0,0,0-0.01,0.01l2.07,0.12c0,0,0.01-0.01,0.01-0.01c0.83,0.06,1.63,0.13,2.34,0.21c-1.92,2.25-4.24,4.74-6.7,7.3
		c-0.45,0.47-1.19-0.15-0.8-0.68c1.53-2.08,3.04-4.1,4.46-5.94c0.16-0.2,0.3-0.38,0.45-0.57l-2.09-0.09
		c-3.91,5.06-8.85,11.92-14.78,20.33c-0.01,0.01-0.02,0.03-0.03,0.04c-4.32,5.01-8.49,8.36-10.4,8.36c-0.46,0-0.74-0.06-0.74-0.95
		c0-3.81,7.65-12.55,9.28-14.13l0.05-0.05c0.2-0.19,0.21-0.51,0.03-0.72l-0.43-0.49c-0.1-0.11-0.24-0.18-0.39-0.18h-0.33l-0.22,0.22
		c-0.17,0.09-0.39,0.13-0.63,0.13c-0.25,0-0.87-0.06-1.23-0.6c-0.41-0.61-0.35-1.67,0.18-2.98c0.01-0.02,0.02-0.04,0.03-0.06
		l0.62-1.14c0.15-0.27,0.03-0.61-0.25-0.73l-0.6-0.27c-0.26-0.11-0.56,0-0.68,0.25l-0.03,0.06c-1.92,3.94-5.66,8.32-8.96,12.18
		l-0.42,0.49l0,0l-0.36,0.43c-2.11,2.48-5.01,5.08-7.68,6.13c-0.52,0.21-0.96-0.44-0.57-0.85c3.59-3.82,6.78-8.97,6.78-12.26
		c0-1.55-0.94-2.55-2.4-2.55c-1.87,0-4.47,1.6-6.77,4.17c-0.96,1.07-1.75,2.18-2.37,3.29c-0.1,0.17-0.33,0.21-0.47,0.07l0,0
		c-0.12-0.12-0.31-0.12-0.42,0l-0.21,0.21c-0.62,0.62-1.21,1.29-1.74,1.98c-1.65,1.93-3.57,4.15-4.82,5.08
		c-0.39,0.29-0.93-0.05-0.83-0.52c0.31-1.4,1.55-4.56,6.19-11.17l0.04-0.06c0.16-0.23,0.11-0.55-0.11-0.72l-0.52-0.39
		c-0.23-0.17-0.56-0.13-0.73,0.1l-0.36,0.48c-9.96,14.26-13.63,15.8-14.74,15.8c-0.43,0-0.79-0.08-0.79-1c0-2.05,2.17-5.1,4.92-8.95
		c1-1.39,2.12-2.97,3.26-4.66l0.04-0.06c0.16-0.23,0.1-0.54-0.12-0.71l-0.52-0.39c-0.24-0.18-0.58-0.12-0.75,0.12l-0.04,0.06
		C94.98,45.93,91.3,47.04,90.41,47.04c-0.15,0-0.48,0-0.48-0.79c0-1.61,1.65-4.16,3.82-6.94l0.31-0.36l-0.02-0.01
		c1.29-1.63,2.74-3.33,4.13-4.95c0.72-0.84,1.43-1.67,2.12-2.49l0.05-0.06c0.19-0.23,0.15-0.58-0.09-0.76l-0.53-0.39
		c-0.22-0.17-0.54-0.13-0.72,0.08l-0.04,0.05c-0.71,0.85-1.46,1.72-2.22,2.6c-1.58,1.84-3.18,3.7-4.56,5.48
		c-4.73,5.49-8.81,8.37-10.41,8.37c-0.13,0-0.18-0.02-0.18-0.02c-0.01-0.01-0.05-0.09-0.05-0.32c0-1.64,2.02-4.37,3.98-7
		c2.22-2.99,4.51-6.08,4.51-8.38c0-1.43-1.04-1.93-1.93-1.93c-1.36,0-3.34,1.2-5.91,3.59c-0.39,0.36-1.01-0.01-0.86-0.52
		c0.11-0.4,0.17-0.74,0.17-1.04c0-0.99-0.73-2.04-2.09-2.04c-1,0-2.52,0.86-4.52,2.57c-0.37,0.31-0.91,0.01-0.86-0.46
		c0.01-0.06,0.01-0.11,0.01-0.17c0-1.3-0.92-1.88-1.83-1.88c-1.58,0-3.89,2.67-7.54,7.02c-0.57,0.68-1.14,1.36-1.71,2.03l0,0
		c-6.06,7.02-8.84,8.49-10.1,8.49c-0.27,0-0.36-0.13-0.42-0.25c-0.09-0.18-0.74-1.96,3.46-7.17l0.59-0.74l-0.39-0.29
		c2.65-2.25,4.2-4.91,4.2-6.44c0-1.19-0.91-2.4-2.65-2.4c-3.6,0-8.88,4-12.32,8.42l-0.32,0.38c-4.43,5.19-10.63,9.1-14.41,9.1
		c-0.48,0-1.93,0-1.93-2.39c0-1.02,0.27-2.15,0.8-3.38c0.09-0.2,0.28-0.31,0.5-0.31c0.07,0,0.14,0,0.21,0
		c6.49,0,12.58-6.01,12.58-9.64c0-1.36-0.84-2.24-2.14-2.24c-1.88,0-5.27,2.11-8.23,5.14c-3.45,3.52-5.43,7.32-5.43,10.43
		c0,2.49,1.43,4.09,3.63,4.09c2.87,0,6.77-1.83,10.49-4.73c0.37-0.29,0.89,0.01,0.84,0.48c-0.03,0.23-0.04,0.45-0.04,0.67
		c0,1.69,1.03,2.91,2.45,2.91c1.53,0,3.36-0.9,5.55-2.72c0.34-0.28,0.85-0.04,0.86,0.4c0.01,0.63,0.16,1.08,0.35,1.41
		c0.37,0.62,1,0.96,1.78,0.96c2.39,0,6.11-2.93,11.05-8.69l0,0l0.36-0.43c0.02-0.02,0.03-0.04,0.05-0.06l0.36-0.42l0,0
		c0.53-0.63,1.06-1.26,1.57-1.88C68.5,34.37,71.31,31,72.2,31c0.05,0,0.09,0,0.12,0c0.01,0.04,0.01,0.09,0.01,0.17
		c0,1.52-5.07,7.95-8.1,11.8c-1.29,1.63-2.4,3.05-3.01,3.91l-0.04,0.06c-0.16,0.23-0.11,0.55,0.11,0.72l0.52,0.39
		c0.23,0.17,0.55,0.13,0.72-0.09l0.04-0.05C75.19,32.17,78.64,30.95,79.4,30.95c0.38,0,0.38,0.08,0.38,0.33
		c0,1.93-4.66,8.95-8.98,14.65l-0.61,0.78c-0.18,0.23-0.14,0.57,0.1,0.74l0.53,0.4c0.23,0.18,0.57,0.13,0.74-0.11l0.6-0.82
		c7.58-9.85,13.69-15.97,15.94-15.97c0.14,0,0.2,0.02,0.2,0.02c0.01,0.02,0.03,0.08,0.03,0.21c0,1.75-2.09,4.57-4.11,7.29
		c-2.25,3.04-4.38,5.91-4.38,8.09c0,1.5,1.04,2.04,1.93,2.04c1.48,0,3.49-1.18,5.6-2.9c0.35-0.29,0.87-0.02,0.85,0.43
		c0,0.04,0,0.09,0,0.13c0,1.82,1.34,2.5,2.19,2.5c1.31,0,3.03-0.99,5.21-3.01c0.34-0.32,0.88-0.07,0.88,0.4c0,0,0,0.01,0,0.01
		c0,1.62,1,2.71,2.5,2.71c1.77,0,4.27-1.79,7.58-5.46c0.33-0.37,0.93-0.12,0.92,0.38c-0.01,0.51,0.08,0.93,0.27,1.25
		c0.29,0.48,0.79,0.75,1.42,0.75c0.49,0,1.03-0.22,1.63-0.63c0.37-0.25,0.85,0.04,0.82,0.48c-0.01,0.11-0.01,0.22-0.01,0.33
		c0,1.74,1.09,2.96,2.65,2.96c1.34,0,2.94-0.73,4.91-2.24c0.13-0.1,0.29-0.13,0.45-0.1c0.35,0.08,0.71,0.11,1.1,0.11
		c3.13,0,7.2-2.54,10.97-6.82l0.01,0l0.43-0.51c2.24-2.61,4.72-5.5,6.81-8.36c0.22-0.3,0.66-0.29,0.86,0.01
		c0.06,0.09,0.13,0.17,0.19,0.25c0.26,0.3,0.58,0.55,0.95,0.73c0.31,0.15,0.39,0.55,0.17,0.81c-2.8,3.25-7.73,9.48-7.73,13.15
		c0,1.59,0.98,2.65,2.45,2.65c1.31,0,2.99-0.86,4.77-2.19c-0.29,0.39-0.58,0.78-0.88,1.19l-6.34,8.31l-5.73,8.01l5.91-6.56
		c0.41-0.52,8.76-10.33,9.84-11.82c4.86-6.28,11.95-13.61,15.94-13.61c0.75,0,1.15,0.2,1.15,1.26c0,2.4-3.51,6.69-10.5,6.69
		c-0.33,0-0.67-0.01-1.01-0.03l-0.42-0.02l-0.16,0.38c-1.1,2.58-1.13,4.88-0.08,6.47c0.77,1.17,2.1,1.87,3.56,1.87
		c3.83,0,8.87-3.32,13.83-9.11l0.05-0.06c0.03-0.03,0.04-0.07,0.06-0.11C168.01,36.88,174.2,29.58,173.99,23.52z M164.57,16.44
		c4.47-5.59,5.9-6.5,6.31-6.62c0,0.03,0.01,0.07,0.01,0.11c0,1.4-1.56,3.84-3.99,6.8C166.19,16.62,165.42,16.52,164.57,16.44z
		 M31.13,38.79c2.94-4.2,7.65-7.58,9.48-7.58c0.38,0,0.43,0,0.43,0.54c0,1.28-1.31,3.3-3.19,4.91c-1.15,0.98-3.36,2.54-6.21,2.96
		C31.19,39.67,30.86,39.16,31.13,38.79z M44.31,46.79c-0.22,0-0.74,0-0.74-1.2c0-1.71,1.1-3.94,2.73-6.14c0,0,0.01-0.01,0.01-0.01
		l0.41-0.48l-0.03-0.02c3.12-3.98,7.89-7.67,10.94-7.67c0.95,0,0.95,0.45,0.95,0.69c0,1.33-2.59,5.52-7.6,7.58l-0.07,0.03
		c-0.27,0.11-0.39,0.41-0.29,0.68l0.26,0.65c0.11,0.27,0.42,0.4,0.69,0.29l0.07-0.03c0.31-0.13,0.61-0.27,0.9-0.41
		C48.13,45.67,45.65,46.79,44.31,46.79z M117.28,46c-1.19,0.78-2.23,1.2-3,1.2c-0.46,0-0.95-0.1-0.95-1.26
		c0-1.21,0.67-3.07,1.96-5.02c0.29-0.44,0.97-0.22,0.96,0.31c0,0.03,0,0.05,0,0.08c0,1.92,0.51,3.14,1.15,3.92
		C117.6,45.47,117.54,45.83,117.28,46z M119.55,44.19c-0.22,0.2-0.55,0.17-0.75-0.05c-0.68-0.76-0.84-1.9-0.84-2.83
		c0-4.74,6.05-10.77,8.92-10.77c0.4,0,0.69,0.06,0.69,0.84C127.57,34.71,123.47,40.67,119.55,44.19z"/>
</g>
</svg>
