<?xml version="1.0" encoding="UTF-8"?> <svg xmlns="http://www.w3.org/2000/svg" xmlns:xlink="http://www.w3.org/1999/xlink" viewBox="83 302 210.9 64.7"> <defs> <style> .cls-1 { clip-path: url(#clip-path); } .cls-2 { fill: #f27893; } </style> <clipPath id="clip-path"> <rect id="Rectangle_1" data-name="Rectangle 1" width="210.9" height="64.7"></rect> </clipPath> </defs> <g id="Group_6" data-name="Group 6" transform="translate(83 302)"> <g id="Group_2" data-name="Group 2"> <g id="Group_1" data-name="Group 1" class="cls-1"> <path id="Path_1" data-name="Path 1" class="cls-2" d="M22.5,4.5a.723.723,0,0,1,.6-.4c.3,0,.5.2.5.7v7.6c0,.3-.1.4-.3.4a.51.51,0,0,1-.5-.4,25.18,25.18,0,0,0-1.4-3.3,9.425,9.425,0,0,0-1.8-2.5A8.234,8.234,0,0,0,17.4,5a6.361,6.361,0,0,0-2.8-.5,10.642,10.642,0,0,0-3.3.4A3.343,3.343,0,0,0,9.4,6.7a13.3,13.3,0,0,0-.9,3.7,51.076,51.076,0,0,0-.3,6.2v4.3A49.268,49.268,0,0,0,8.5,27a10.159,10.159,0,0,0,1.1,3.7,3.667,3.667,0,0,0,1.9,1.8,7.635,7.635,0,0,0,2.7.5,9.587,9.587,0,0,0,3.1-.5,8.842,8.842,0,0,0,2.3-1.4,7.045,7.045,0,0,0,1.6-1.9A22.56,22.56,0,0,0,22.3,27a17.233,17.233,0,0,0,.7-2.1c.2-.7.3-1.2.4-1.7.1-.4.2-.6.4-.6s.3.2.3.6V33c0,.3-.1.5-.2.5s-.3-.1-.5-.4l-1.7-2.4a3.819,3.819,0,0,1-.9.9,9.732,9.732,0,0,1-1.5,1.1,16.475,16.475,0,0,1-2.2.9,11.935,11.935,0,0,1-2.9.4A13.483,13.483,0,0,1,8,32.7a14.075,14.075,0,0,1-4.5-3.4A14.194,14.194,0,0,1,.8,24.5,23.8,23.8,0,0,1,0,18.7a17.135,17.135,0,0,1,.9-5.5A14.194,14.194,0,0,1,3.6,8.4,13.653,13.653,0,0,1,8,5a13.914,13.914,0,0,1,6.3-1.3,9.257,9.257,0,0,1,4,.7,7.856,7.856,0,0,1,2.5,1.7l1.7-1.6Z"></path> </g> </g> <path id="Path_2" data-name="Path 2" class="cls-2" d="M38.9,4.9H36.6V17.3h8.1V4.9H42.4V4.2H53.9v.7H51.6V32.5h2.3v.7H42.4v-.7h2.3V18.2H36.6V32.5h2.3v.7H27.4v-.7h2.3V4.9H27.4V4.3H38.9Z"></path> <path id="Path_3" data-name="Path 3" class="cls-2" d="M62.2,23.5h8.1L66.2,11.1l-4,12.4ZM70.7,4l9.4,28.5h2.3v.7H71v-.7h2.3l-2.7-8.3H62L60.1,30a1.087,1.087,0,0,0-.1.5v.4a1.087,1.087,0,0,0,.1.5,2.186,2.186,0,0,0,.3.5,1.612,1.612,0,0,0,.7.4,4.121,4.121,0,0,0,1.2.1v.7H55.8v-.7a3.232,3.232,0,0,0,2.2-.7,3.553,3.553,0,0,0,1.1-1.6L67.8,4Z"></path> <path id="Path_4" data-name="Path 4" class="cls-2" d="M97.2,17.8a3.152,3.152,0,0,0,1.7-.9,4.445,4.445,0,0,0,1.2-1.9,10.175,10.175,0,0,0,.5-3.4,11.519,11.519,0,0,0-.5-3.6,4.265,4.265,0,0,0-1.2-2,4.011,4.011,0,0,0-1.7-.9,11.135,11.135,0,0,0-1.7-.2H93.9V18h1.6a5.244,5.244,0,0,0,1.7-.2Zm10,12.9a1.216,1.216,0,0,0,1.3.9,2.772,2.772,0,0,0,1.2-.5,6.607,6.607,0,0,0,1.4-1.7c.2-.4.4-.6.5-.6s.2.1.2.3v.3c0,.1-.1.2-.1.3a5.978,5.978,0,0,1-2.7,3.1,7.3,7.3,0,0,1-3.5.9,8.524,8.524,0,0,1-2.3-.3,4.185,4.185,0,0,1-1.8-1.1,4.333,4.333,0,0,1-1.1-2,8.716,8.716,0,0,1-.4-3V24.4a11.194,11.194,0,0,0-.3-2.9,4.281,4.281,0,0,0-.8-1.8,2.73,2.73,0,0,0-1.2-.9,4.145,4.145,0,0,0-1.6-.2H93.8V32.4h2.3v.7H84.7v-.7H87V4.9H84.7V4.3H98a11.762,11.762,0,0,1,6.9,1.8c1.7,1.2,2.5,3.1,2.5,5.6a5.559,5.559,0,0,1-.7,3,5.51,5.51,0,0,1-1.7,2,9.41,9.41,0,0,1-2.2,1.2,10.548,10.548,0,0,1-2.4.6,7.5,7.5,0,0,1,4.9,2.2,5.973,5.973,0,0,1,1.6,4.2v3.6a7.316,7.316,0,0,0,.3,2.2Z"></path> <path id="Path_5" data-name="Path 5" class="cls-2" d="M114.3,31.9a1.94,1.94,0,0,0,.7-1.7V4.9h-2.3V4.3h9.2l7,19.4,7-19.4h9.6V5h-2.3V32.5h2.3v.7H134v-.7h2.3V5.6l-9.8,27.5h-1.2L115.7,5.7V30.2a2.06,2.06,0,0,0,.7,1.7,2.452,2.452,0,0,0,1.6.6v.7h-5.4v-.7a2.352,2.352,0,0,0,1.7-.6Z"></path> <path id="Path_6" data-name="Path 6" class="cls-2" d="M168.8,52.4c.1.8.5,1.3,1.1,1.2.9-.2,1-2.3.9-4.8a3.117,3.117,0,0,0-2,3.6Z"></path> <path id="Path_7" data-name="Path 7" class="cls-2" d="M171.3,34.3a1.62,1.62,0,0,0-2.2-1.3c-1.6.3-3,2.2-3.1,6.2,4.2-1.1,5.5-3.9,5.3-4.9Z"></path> <path id="Path_8" data-name="Path 8" class="cls-2" d="M173.7,27c.8-.1.9-1.8.7-3.4-.1-.7-.3-1.3-.5-1.2-.3.1-1.1,1.5-1.4,3.8v.3a1.457,1.457,0,0,0,1.2.5Z"></path> <g id="Group_5" data-name="Group 5"> <g id="Group_3" data-name="Group 3" class="cls-1"> <path id="Path_9" data-name="Path 9" class="cls-2" d="M178.8,30.5c.1.6.4.9.8.9.3-.1.5-1.6.6-3.5a2.488,2.488,0,0,0-1.4,2.6Z"></path> </g> <g id="Group_4" data-name="Group 4" class="cls-1"> <path id="Path_10" data-name="Path 10" class="cls-2" d="M197.4,43.4a3.105,3.105,0,0,1-3.1-1.3,2.71,2.71,0,0,1-1.6,1.7h-.1c-1.3.2-2.4-1.2-2.7-3.4-.4-2.5.2-3.6,1.5-3.8a1.778,1.778,0,0,1,1.1.2l-.1.2a8.4,8.4,0,0,0,0,3.8c.2,1.2.4,1.8.8,1.8.3,0,.6-.5.8-1.4a4.951,4.951,0,0,1-.4-1.3,5.043,5.043,0,0,1,3.5-5.6c1.2-.2,2.1.4,2.2,1.3.3,1.8-1.6,3.8-3.3,4.3.4,1.6,1.2,2.1,2,2a3.384,3.384,0,0,0,2.5-2.4,1.007,1.007,0,0,1,.3-.1c.2,0,.4,0,.4.1v.1a5.079,5.079,0,0,1-3.8,3.8Zm-7.6,2.5c-1.2.2-2.2-.9-2.8-2.7-.4,1-1,1.7-1.8,1.8-1.2.2-2.3-.9-2.6-2.6a12.287,12.287,0,0,1,0-3.9v-.2a4.858,4.858,0,0,1-1.4.4,20.073,20.073,0,0,1-.5,4.2,5.109,5.109,0,0,1-3.8,3.7c-1.6.3-3.5-.7-4-3.3a5.043,5.043,0,0,1,3.5-5.6c1.2-.2,2.1.4,2.2,1.3.3,1.8-1.6,3.8-3.3,4.3.4,1.6,1.2,2.1,2,2a3.384,3.384,0,0,0,2.5-2.4h0a14.009,14.009,0,0,0,0-4.1c-.6-.1-1-.3-1-.8a1.268,1.268,0,0,1,.1-.6c.2-.7.8-1.3,1.3-1.3a.781.781,0,0,1,1,.5l.1,1.3a4.043,4.043,0,0,0,1.7-1c.6-.4,1.1-.7,1.5-.5h0a.842.842,0,0,1,.4.7,11.752,11.752,0,0,1,0,1.9,13.55,13.55,0,0,0,.1,3.5c.1.8.3,1.4.7,1.3s.7-.8.9-1.9h0c-.1-.5-.2-.9-.3-1.4-.2-1.4-.3-2.6-.4-3.7h-.1a1.4,1.4,0,0,1-1.3-1.3c0-.3,0-.5.3-.6.3,0,.6.1,1,.1a5.02,5.02,0,0,0-.2-1.2,8.332,8.332,0,0,0-.4-1.5c0-.1.5-.3,1-.4.7-.1,1.8-.1,2,.8a19.049,19.049,0,0,1,0,2.4,4.869,4.869,0,0,0,1.2-.1,1.854,1.854,0,0,0,.7-.2,1.193,1.193,0,0,1-.5-.9c-.1-.7.7-1.4,1.5-1.5.7-.1,1.5.1,1.6.7v.2a1.884,1.884,0,0,1-.2.8l-.1.2c-.7,1.1-2.4,1.7-4.1,2h-.2a23.21,23.21,0,0,0,.3,4.5c.4,2.4.9,4.3,1.7,4.2a.349.349,0,0,1,.1.2c0,.4-.1.6-.4.7Zm-4.2,3a12.125,12.125,0,0,1-2.8.1l-1.8-.1a59.075,59.075,0,0,0-8.4-.4c-.4,3.4-1.4,5.7-2.8,5.9-1.1.2-3-.5-3.2-2-.3-2.1,1.9-3.8,4.2-4.5-.1-.8-.1-1.6-.2-2.4-.4,1.1-1.1,2-2.1,2.1-1.5.2-3.8-1-4.5-4.8-.1-.5-.1-1-.2-1.5v-.8c-3.4.3-6.3-1.1-6.7-3.4-.4-2.4,2.3-5.2,4.8-5.6.3-.1,1.1-.1,1.1.1a.642.642,0,0,1-.5.5H162a4.449,4.449,0,0,0-3.5,4.6c.3,1.9,2.2,3.1,5.2,2.8.4-4.4,3.1-7.1,5.4-7.5,1.8-.3,3,.5,3.3,1.9.3,1.9-1.6,4.9-6.4,6.2v.4a12.311,12.311,0,0,0,.2,2c.5,2.9,1.3,4.3,2.4,4.1s1.6-2.2,1.6-3.6c-.1-.3-.2-1,.1-1,.5-.1,2.3.2,2.3.5h0v1a29.4,29.4,0,0,1,0,4.2c4.1-.5,9.8-.2,11.2-.5,1.8-.3,2.9-1.2,3-1.8a.1.1,0,0,1,.1-.1c.2,0,.5.3.6.9a2.091,2.091,0,0,1-1.9,2.7ZM170.7,16.8c.6-.1,1.4,0,1.5.9.2,1.2,0,3.7.1,6.1.5-1.4,1.1-2.6,2.1-2.7.7-.1,1.3.4,1.5,1.6.4,2.2-.5,4.7-2.3,5a1.389,1.389,0,0,1-1.1-.2l.1.3c0,.1-.3.3-.6.4a.991.991,0,0,1-1.2-.7v-1a50.1,50.1,0,0,0-.6-7.7,7.492,7.492,0,0,0-.4-1.6,3.92,3.92,0,0,1,.9-.4Zm6.6,3.8a.741.741,0,0,1,1,.6,9.621,9.621,0,0,1,.2,2.4,4.868,4.868,0,0,0,.1,1.2c.1.7.3,1.2.5,1.1.5-.1.7-1.5,1-3.8a3.083,3.083,0,0,0-.1-1,1.854,1.854,0,0,0-.2-.7c0-.1.3-.3.6-.4a.921.921,0,0,1,1.2.8,24.06,24.06,0,0,1,0,6h0c3.2-.5,7.8-.3,9-.5,1.3-.2,1.9-.7,2-1.1h0a.1.1,0,0,1,.1-.1c.2,0,.5.2.6.8s-.2,1.5-1.5,1.7a12.785,12.785,0,0,1-2.1.1c-2.2-.1-5.7-.6-8.1-.3-.4,2.4-1.2,4.5-2.1,4.6a2.2,2.2,0,0,1-2.3-1.5v-.6c.2-1.2,1.6-2.2,3-2.8V24.7c-.4,1.2-.9,2.2-1.8,2.4-.7.1-1.3-.4-1.5-1.6-.1-.8-.2-2-.3-2.7a5.415,5.415,0,0,0-.4-1.5,1.9,1.9,0,0,1,1.1-.7ZM187.6,5.4a9.469,9.469,0,0,1,9.1,6.9,9.466,9.466,0,0,1-.2,6c-6.3-1.8-10.4,0-10.4,0s-.6-4.7-5.9-9.1a9.1,9.1,0,0,1,7.4-3.8Zm13.8,14.9a15.01,15.01,0,0,0,.5-9.6,14.689,14.689,0,0,0-7.1-8.9,15.176,15.176,0,0,0-7.2-1.9,14.873,14.873,0,0,0-12,6.1c-8.9-4.6-19.2-1.1-23.1,6-9.3,16.7,9.7,49.4,9.7,49.4s37.7-1.3,47-18.1c3.9-7.1,1.2-18-7.8-23Z"></path> </g> </g> <path id="Path_11" data-name="Path 11" class="cls-2" d="M176.7,40.1c-.1-.9-.4-1.4-.7-1.4-.6.1-1,1.6-.7,3.8v.3a2.206,2.206,0,0,0,1.4-2.7Z"></path> <path id="Path_12" data-name="Path 12" class="cls-2" d="M197.1,36.7c-.1-.9-.4-1.4-.7-1.4-.6.1-1,1.6-.7,3.8v.3c1.1-.2,1.6-1.4,1.4-2.7Z"></path> <path id="Path_13" data-name="Path 13" class="cls-2" d="M12.2,52.6a7.679,7.679,0,0,0,.8-3.8,16.413,16.413,0,0,0-.2-2.3,4.283,4.283,0,0,0-.6-1.7,2.335,2.335,0,0,0-1.2-1,4.776,4.776,0,0,0-1.8-.4H8.3V53.9H9.4a2.856,2.856,0,0,0,2.8-1.3ZM14,43.3a5.291,5.291,0,0,1,2.1,1.1,4.887,4.887,0,0,1,1.4,1.8,5.439,5.439,0,0,1,.5,2.7,6.689,6.689,0,0,1-.5,2.6,4.744,4.744,0,0,1-1.4,1.7,6.809,6.809,0,0,1-2.1,1,10.9,10.9,0,0,1-2.6.3H8.3v9.3H10v.5H1.5v-.5H3.2V43.4H1.5v-.5h9.9a7.457,7.457,0,0,1,2.6.4Z"></path> <path id="Path_14" data-name="Path 14" class="cls-2" d="M20.8,57.1h6l-3-9.1-3,9.1Zm6.3-14.4,6.9,21h1.7v.5H27.2v-.5H29l-2-6.1H20.7l-1.3,4.2a.756.756,0,0,0-.1.4v.3a.756.756,0,0,0,.1.4.536.536,0,0,0,.3.4,2.186,2.186,0,0,0,.5.3,2.22,2.22,0,0,0,.9.1v.5H16.3v-.5a2.544,2.544,0,0,0,1.6-.5,1.991,1.991,0,0,0,.8-1.2L25,42.7Z"></path> <path id="Path_15" data-name="Path 15" class="cls-2" d="M47.6,63.7v.5H39.1v-.5h1.7V43.4H39.5a3.472,3.472,0,0,0-2.8,1.5,9.016,9.016,0,0,0-1.6,4.2h-.6l.5-5.6c0-.2.1-.3.2-.5a.845.845,0,0,1,.6-.2H50.9a1.165,1.165,0,0,1,.7.2.764.764,0,0,1,.2.5l.5,5.6h-.6a10.246,10.246,0,0,0-1.6-4.2,3.472,3.472,0,0,0-2.8-1.5H46V63.7Z"></path> <path id="Path_16" data-name="Path 16" class="cls-2" d="M66.6,63.7v.5H58.1v-.5h1.7V43.4H58.5a3.472,3.472,0,0,0-2.8,1.5,9.016,9.016,0,0,0-1.6,4.2h-.6l.5-5.6c0-.2.1-.3.2-.5a.845.845,0,0,1,.6-.2H69.9a1.165,1.165,0,0,1,.7.2.764.764,0,0,1,.2.5l.5,5.6h-.6a10.246,10.246,0,0,0-1.6-4.2,3.472,3.472,0,0,0-2.8-1.5H65V63.7Z"></path> <path id="Path_17" data-name="Path 17" class="cls-2" d="M84,56.5a4.5,4.5,0,0,0-.8-2.4,2.2,2.2,0,0,0-1.8-.8H79.5V63.7h3a5.464,5.464,0,0,0,2.4-.4,4.428,4.428,0,0,0,1.5-1.2,5.076,5.076,0,0,0,.9-1.8,14.191,14.191,0,0,0,.5-2.2c.1-.3.2-.5.4-.5s.3.2.3.5v5.2a1.445,1.445,0,0,1-.2.7c-.1.2-.3.3-.7.3h-15v-.5h1.7V43.4H72.6v-.5H86.3a1.165,1.165,0,0,1,.7.2.779.779,0,0,1,.3.7l.3,4.6c0,.3-.1.4-.3.4s-.3-.1-.3-.4a5.84,5.84,0,0,0-.4-1.8,3.915,3.915,0,0,0-1-1.6,4.61,4.61,0,0,0-3.8-1.6H79.4v9.4h1.9a2.2,2.2,0,0,0,1.8-.8,4.5,4.5,0,0,0,.8-2.4q0-.6.3-.6t.3.6v6.9q0,.6-.3.6a3.222,3.222,0,0,1-.2-.6Z"></path> <path id="Path_18" data-name="Path 18" class="cls-2" d="M99.8,52.9a2.281,2.281,0,0,0,1.2-.6,2.845,2.845,0,0,0,.9-1.4,8.151,8.151,0,0,0,.4-2.5,6.99,6.99,0,0,0-.4-2.7,3.178,3.178,0,0,0-.9-1.5,2.274,2.274,0,0,0-1.2-.6,6.151,6.151,0,0,0-1.3-.1H97.3v9.6h1.2a5.853,5.853,0,0,0,1.3-.2Zm7.4,9.5a.9.9,0,0,0,1,.7,1.394,1.394,0,0,0,.9-.4,4.22,4.22,0,0,0,1-1.2c.1-.3.3-.4.4-.4a.215.215,0,0,1,.2.2v.2c0,.1-.1.1-.1.2a4.573,4.573,0,0,1-2,2.3,4.845,4.845,0,0,1-2.6.7,8.807,8.807,0,0,1-1.7-.2,3.528,3.528,0,0,1-1.3-.8,3.606,3.606,0,0,1-.8-1.5,7.316,7.316,0,0,1-.3-2.2V57.9a12.734,12.734,0,0,0-.2-2.2,2.261,2.261,0,0,0-.6-1.3,1.456,1.456,0,0,0-.9-.6,3.73,3.73,0,0,0-1.2-.2H97.4V63.8h1.7v.5H90.6v-.5h1.7V43.4H90.6v-.5h9.8a8.372,8.372,0,0,1,5.1,1.3,4.836,4.836,0,0,1,1.8,4.1,4.767,4.767,0,0,1-.5,2.2,4.428,4.428,0,0,1-1.2,1.5,4.608,4.608,0,0,1-1.7.9,12.09,12.09,0,0,1-1.8.5,5.285,5.285,0,0,1,3.6,1.6,4.471,4.471,0,0,1,1.2,3.1v2.6a6.528,6.528,0,0,0,.3,1.7Z"></path> <path id="Path_19" data-name="Path 19" class="cls-2" d="M124.4,42.9h3.9v.5a1.922,1.922,0,0,0-1.2.4,1.346,1.346,0,0,0-.5,1.2V64.5h-1.1L113.3,46.9V62.1a1.5,1.5,0,0,0,.5,1.2,1.746,1.746,0,0,0,1.2.4v.5h-3.9v-.5a1.922,1.922,0,0,0,1.2-.4,1.656,1.656,0,0,0,.5-1.2v-16l-2-2.4v-.8H117L126.1,56V45a1.5,1.5,0,0,0-.5-1.2,1.594,1.594,0,0,0-1.2-.4v-.5Z"></path> <path id="Path_20" data-name="Path 20" class="cls-2" d="M143.7,42.4c.1,0,.2.1.2.3v5.6c0,.1-.1.1-.2.1s-.2-.1-.3-.4a11.817,11.817,0,0,0-1-2.5A4.094,4.094,0,0,0,141,44a3.4,3.4,0,0,0-1.5-.7,7.719,7.719,0,0,0-1.5-.2,3.339,3.339,0,0,0-1.5.3,2.836,2.836,0,0,0-1.1.8,4.129,4.129,0,0,0-.7,1.1,5.019,5.019,0,0,0-.2,1.2,3.576,3.576,0,0,0,.4,1.9,2.586,2.586,0,0,0,1.4,1.1c.5.2,1.1.3,1.8.5s1.2.3,1.7.4a6.652,6.652,0,0,1,4.2,2.3,7.116,7.116,0,0,1,1.4,4.7,8.574,8.574,0,0,1-.5,2.7,6.776,6.776,0,0,1-1.4,2.3,6.342,6.342,0,0,1-2.3,1.6,8.109,8.109,0,0,1-3.3.6,12.482,12.482,0,0,1-2.1-.2,5.271,5.271,0,0,1-1.5-.5,4.13,4.13,0,0,1-1.1-.7,5.716,5.716,0,0,1-.8-.7l-1,1.5c-.2.3-.4.4-.5.4a.215.215,0,0,1-.2-.2V57.3a.1.1,0,0,1,.1-.1c.1,0,.2.1.3.4a20.943,20.943,0,0,0,.8,2.3,9.172,9.172,0,0,0,1.3,2.1,7.006,7.006,0,0,0,1.9,1.5,5.4,5.4,0,0,0,2.7.6,3.966,3.966,0,0,0,2-.4,3.881,3.881,0,0,0,1.4-1,3.528,3.528,0,0,0,.8-1.3,3.453,3.453,0,0,0,.3-1.3,4.064,4.064,0,0,0-.5-2.1,3,3,0,0,0-2-1.2c-.2-.1-.5-.1-.8-.2l-1.2-.3c-.4-.1-.9-.2-1.3-.3s-.9-.2-1.2-.3a6.434,6.434,0,0,1-3.5-2.2,6.563,6.563,0,0,1-1.1-3.8,7.418,7.418,0,0,1,.5-2.5,7.994,7.994,0,0,1,1.3-2.2,5.963,5.963,0,0,1,2.2-1.6,7.306,7.306,0,0,1,3-.6,7.385,7.385,0,0,1,2.8.5,15.043,15.043,0,0,1,1.8.9l.8-1.2c.4-.5.5-.6.6-.6Z"></path> </g> </svg> 