<svg height="682pt" viewBox="-48 -21 682 682.66669" width="682pt" xmlns="http://www.w3.org/2000/svg"><path d="m522.425781 497.609375c-30.40625-11-70.300781-19.488281-116.40625-24.839844 4.453125-4.511719 8.851563-9.082031 13.167969-13.722656 41.269531-44.359375 68.75-87.734375 84.003906-132.59375 32.78125-96.351563.582032-215.703125-74.890625-277.617187-38.394531-31.492188-87.265625-48.835938-137.613281-48.835938-.003906 0 0 0 0 0-50.347656 0-99.222656 17.34375-137.613281 48.835938-35.742188 29.324218-63.265625 72.414062-77.5 121.339843-14.0625 48.347657-14.382813 99.457031-.90625 143.921875 18.023437 59.480469 56.734375 111.871094 102.273437 158.695313-45.945312 5.351562-85.714844 13.8125-116.058594 24.777343-41.394531 14.945313-62.382812 33.664063-62.382812 55.640626 0 26.828124 30.796875 48.578124 91.535156 64.640624 54.003906 14.28125 125.585938 22.148438 201.5625 22.148438 75.976563 0 147.558594-7.867188 201.5625-22.148438 60.734375-16.0625 91.53125-37.8125 91.53125-64.640624 0-21.957032-20.953125-40.664063-62.265625-55.601563zm-422.652343-320.390625c12.828124-44.09375 37.433593-82.769531 69.285156-108.898438 33.898437-27.808593 77.09375-43.121093 121.628906-43.121093s87.730469 15.316406 121.625 43.125c32.960938 27.035156 57.847656 67.738281 70.078125 114.609375 12.039063 46.136718 10.953125 94.230468-3.054687 135.40625-31.574219 92.816406-114.640626 162.03125-188.648438 223.035156-78.421875-64.726562-163.6875-141.472656-191.902344-234.585938-12.078125-39.84375-11.726562-85.859374.988282-129.570312zm386.941406 416.265625c-51.960938 13.746094-121.25 21.316406-195.117188 21.316406-73.867187 0-143.160156-7.570312-195.117187-21.316406-57.453125-15.195313-72.78125-32.464844-72.78125-40.273437 0-16.742188 56.125-46.382813 176.472656-57.503907 25.082031 23.808594 51.429687 46.125 76.992187 67.183594 10.378907 8.550781 16.496094 8.691406 27.050782-.003906 24.902344-20.523438 52.039062-42.902344 78.175781-67.230469 120.789063 11.070312 177.101563 40.796875 177.101563 57.554688 0 7.808593-15.328126 25.085937-72.777344 40.273437zm0 0"/><path d="m359.050781 363.121094c6.300781-2.964844 9-10.472656 6.035157-16.769532-2.96875-6.292968-10.472657-9-16.769532-6.03125-17.90625 8.433594-38.058594 13.078126-56.738281 13.078126-71.296875 0-129.296875-58.003907-129.296875-129.300782 0-71.292968 58-129.296875 129.300781-129.296875 71.292969 0 129.296875 58.003907 129.296875 129.296875 0 17.574219-3.457031 34.609375-10.285156 50.628906-2.726562 6.402344.253906 13.804688 6.65625 16.527344 6.402344 2.730469 13.804688-.246094 16.527344-6.648437 8.164062-19.160157 12.300781-39.519531 12.300781-60.507813 0-85.191406-69.304687-154.503906-154.5-154.503906-85.191406 0-154.503906 69.3125-154.503906 154.503906 0 85.195313 69.3125 154.5 154.503906 154.5 22.3125 0 46.277344-5.496094 67.472656-15.476562zm0 0"/><path d="m395.023438 308.453125c-6.851563 0-12.601563 5.742187-12.597657 12.601563 0 6.84375 5.753907 12.597656 12.597657 12.597656 7.070312 0 12.890624-6.105469 12.578124-13.148438-.292968-6.640625-5.917968-12.050781-12.578124-12.050781zm0 0"/><path d="m292.855469 163.472656c-21.277344-17.800781-53.105469-16.699218-73.085938 3.28125-21.136719 21.136719-21.136719 55.53125 0 76.667969l61.128907 61.128906c3.347656 3.34375 6.96875 6.449219 11.957031 6.449219 5.003906 0 8.605469-3.101562 11.964843-6.453125l61.121094-61.125c21.136719-21.136719 21.136719-55.53125 0-76.667969-19.984375-19.980468-51.804687-21.082031-73.085937-3.28125zm55.265625 62.132813-55.265625 55.261719-55.261719-55.261719c-11.316406-11.3125-11.316406-29.722657 0-41.03125 5.652344-5.660157 13.085938-8.484375 20.511719-8.484375 7.429687 0 14.863281 2.824218 20.515625 8.484375l5.324218 5.324219c4.921876 4.914062 12.898438 4.914062 17.820313 0l5.324219-5.324219c11.3125-11.316407 29.722656-11.3125 41.03125 0 11.3125 11.308593 11.3125 29.71875 0 41.03125zm0 0"/></svg>