<?xml version="1.0" encoding="UTF-8"?>
<svg id="a" xmlns="http://www.w3.org/2000/svg" width="24" height="24" viewBox="0 0 24 24">
  <path fill="#8f7a7c" d="M9.9852,10.0962c.3232,.1431,.6689,.2144,1.0156,.2144s.6924-.0713,1.0156-.2144l7.4844-3.3267v4.2376c.342,.0054,.6748,.0552,1,.1334V4c0-1.3784-1.1211-2.5-2.5-2.5H4.0009c-1.3789,0-2.5,1.1216-2.5,2.5V14c0,1.3784,1.1211,2.5,2.5,2.5h6.0914c-.0662-.3292-.0963-.6636-.0894-1H4.0009c-.8271,0-1.5-.6729-1.5-1.5V6.7695l7.4844,3.3267ZM2.5009,4c0-.8271,.6729-1.5,1.5-1.5h14c.8271,0,1.5,.6729,1.5,1.5v1.6753l-7.8906,3.5068c-.3867,.1719-.832,.1719-1.2188,0L2.5009,5.6753v-1.6753ZM21.6005,13.4004c-1.1602-1.1616-3.1865-1.1606-4.3467,0l-.2529,.2529-.2529-.2529c-1.1602-1.1606-3.1865-1.1616-4.3467,0-1.1982,1.1982-1.1982,3.1479-.0137,4.332l4.2461,4.6064c.0938,.1025,.2275,.1611,.3672,.1611s.2734-.0586,.3672-.1611l4.2324-4.5918c1.1982-1.1987,1.1982-3.1484,0-4.3467Zm-.7207,3.6543l-3.8789,4.2075-3.8926-4.2222c-.8086-.8086-.8086-2.1245,0-2.9326,.3916-.3916,.9121-.6074,1.4658-.6074,.5547,0,1.0752,.2158,1.4668,.6074l.6064,.6064c.1953,.1953,.5117,.1953,.707,0l.6064-.6064c.7822-.7827,2.1484-.7837,2.9326,0,.8086,.8081,.8086,2.124-.0137,2.9473Z"/>
</svg>