<?xml version="1.0" encoding="UTF-8" standalone="no"?>
<!DOCTYPE svg PUBLIC "-//W3C//DTD SVG 1.1//EN" "http://www.w3.org/Graphics/SVG/1.1/DTD/svg11.dtd">
<svg width="100%" height="100%" viewBox="0 0 2000 1000" version="1.1" xmlns="http://www.w3.org/2000/svg" xmlns:xlink="http://www.w3.org/1999/xlink" xml:space="preserve" xmlns:serif="http://www.serif.com/" style="fill-rule:evenodd;clip-rule:evenodd;stroke-linejoin:round;stroke-miterlimit:2;">
    <g id="ikatee" transform="matrix(4.16667,0,0,4.16667,-153.83,-11.0376)">
        <g transform="matrix(0.832862,0,0,0.832862,40.3898,18.4396)">
            <text x="187.578px" y="219.018px" style="font-family:'Georgia', serif;font-size:27.017px;fill:rgb(25,35,63);">Sewing Patterns</text>
        </g>
        <g transform="matrix(0.832862,0,0,0.832862,237.888,157.152)">
            <path d="M0,-136.491C-0.223,-136.491 -0.466,-136.477 -0.726,-136.451C-10.211,-135.494 -35.063,-94.163 -54.475,-47.304C-36.99,-67.6 -21.005,-89.459 -13.307,-101.571C-0.755,-121.319 3.125,-133.289 1.419,-136.055C1.247,-136.338 0.744,-136.491 0,-136.491M-54.638,-30.303C-34.937,-30.303 -10.444,-51.38 -5.695,-61.928C-4.955,-63.574 -4.962,-64.374 -4.993,-64.621C-5.162,-64.695 -5.579,-64.825 -6.399,-64.825C-7.737,-64.825 -10.28,-64.474 -14.803,-62.802C-29.8,-57.243 -43.214,-46.31 -54.684,-30.303L-54.638,-30.303ZM238.71,-58.281C224.326,-58.281 205.491,-38.23 203.355,-20.642C203.117,-18.693 203.112,-16.836 203.337,-15.108C218.882,-25.122 233.476,-38.819 239.792,-49.355C242.625,-54.081 242.697,-56.57 242.293,-57.296C241.967,-57.883 240.722,-58.251 238.96,-58.28L238.71,-58.281ZM196.562,-66.464C195.718,-66.464 194.756,-66.375 193.704,-66.198C172.101,-62.575 149.171,-30.854 150.517,-12.892C150.557,-12.353 150.621,-11.829 150.703,-11.33C171.803,-24.309 191.418,-45.348 197.596,-57.563C200.122,-62.557 199.963,-65.019 199.471,-65.686C199.106,-66.18 198.046,-66.464 196.562,-66.464M57.128,-66.98C46.242,-66.98 23.421,-53.712 12.437,-32.923C7.774,-24.102 5.373,-16.69 5.286,-10.873C32.656,-25.471 59.423,-51.404 61.49,-61.852C62.257,-65.726 60.618,-66.305 59.832,-66.584C59.088,-66.846 58.178,-66.98 57.128,-66.98M6.326,-4.881C6.461,-4.583 6.598,-4.328 6.729,-4.112C8.26,-1.572 10.751,-1.04 12.571,-1.04C20.427,-1.04 39.61,-17.91 53.055,-39.504C40.574,-26.616 22.735,-13.356 6.326,-4.881M226.74,6.009C223.485,6.009 220.196,5.633 216.962,4.891C209.19,3.107 203.393,-0.695 200.159,-6.119C187.523,1.138 175.818,4.971 166.284,4.971L165.719,4.967C157.415,4.829 151.417,2.271 147.886,-2.637C138.287,2.409 129.615,4.967 122.104,4.967C114.734,4.967 109.389,2.214 106.216,-3.216C100.803,-12.477 102.477,-29.969 111.19,-55.243C86.547,-17.462 64.81,4.967 52.724,4.967C48.715,4.967 46.706,2.984 45.726,1.321C43.038,-3.24 44.639,-11.847 50.776,-25.584C37.295,-7.655 21.662,4.967 12.571,4.967C7.812,4.967 3.909,2.843 1.586,-1.011C1.352,-1.401 1.134,-1.806 0.926,-2.242C-9.457,2.541 -18.455,4.967 -25.824,4.967C-48.317,4.967 -56.375,-19.275 -58.045,-25.371C-67.684,-10.524 -72.083,2.753 -72.127,2.889C-72.527,4.131 -73.671,4.967 -74.976,4.967C-75.271,4.967 -75.565,4.924 -75.852,4.838C-77.409,4.368 -78.317,2.713 -77.874,1.148C-75.951,-5.678 -73.618,-13.031 -70.933,-20.735C-88.293,-3.679 -101.848,4.967 -111.233,4.967C-115.741,4.967 -117.919,2.884 -118.952,1.137C-123.355,-6.31 -115.561,-21.676 -104.068,-42.573C-101.105,-47.961 -97.498,-54.52 -95.897,-58.374C-99.956,-55.612 -107.081,-48.242 -112.421,-42.719C-120.893,-33.953 -131.374,-23.11 -142.333,-14.879C-148.364,-10.349 -154.405,-8.052 -160.288,-8.052C-161.871,-8.052 -163.463,-8.221 -165.019,-8.553C-177.142,-11.155 -183.847,-23.025 -184.127,-23.529C-184.922,-24.975 -184.395,-26.803 -182.952,-27.604C-182.505,-27.85 -182.004,-27.979 -181.5,-27.979C-180.409,-27.979 -179.402,-27.387 -178.87,-26.435C-178.813,-26.334 -173.208,-16.434 -163.729,-14.418C-162.613,-14.182 -161.465,-14.062 -160.319,-14.062C-155.741,-14.062 -150.902,-15.953 -145.937,-19.68C-135.358,-27.63 -125.488,-37.843 -116.779,-46.852C-104.971,-59.07 -98.574,-65.446 -93.483,-65.446C-93.034,-65.446 -92.59,-65.395 -92.162,-65.296C-90.955,-65.021 -89.971,-64.218 -89.465,-63.093C-87.955,-59.726 -90.685,-54.448 -98.807,-39.678C-105.098,-28.236 -116.78,-6.99 -113.783,-1.919C-113.652,-1.701 -113.252,-1.04 -111.233,-1.04C-101.996,-1.04 -86.311,-12.629 -65.87,-34.562C-46.462,-85.279 -16.281,-140.918 -1.328,-142.427C-0.859,-142.477 -0.412,-142.5 0.01,-142.5C3.714,-142.5 5.601,-140.711 6.532,-139.21C11.088,-131.817 1.014,-112.91 -8.238,-98.35C-14.135,-89.07 -26.422,-71.949 -40.455,-54.7C-33.105,-60.744 -25.201,-65.352 -16.891,-68.431C-12.508,-70.058 -9.061,-70.85 -6.354,-70.85C-3.797,-70.85 -1.9,-70.153 -0.559,-68.72C0.828,-67.233 2.013,-64.421 -0.218,-59.463C-5.912,-46.815 -30.358,-26.28 -51.489,-24.434C-48.979,-16.94 -41.768,-1.04 -25.824,-1.04C-18.84,-1.04 -10.352,-3.357 -0.591,-7.928C-1.337,-15.15 1.326,-24.752 7.124,-35.728C19.779,-59.677 44.87,-72.921 57.378,-72.921C59.065,-72.921 60.565,-72.694 61.837,-72.244C64,-71.478 68.813,-68.873 67.457,-61.101C68.27,-61.747 68.993,-62.046 69.71,-62.046C70.306,-62.046 70.813,-61.841 71.271,-61.62C74.512,-60.078 72.815,-55.618 72.259,-54.153C71.911,-53.242 71.026,-51.632 68.882,-47.753C54.386,-21.556 48.338,-6.075 50.898,-1.729C51.033,-1.505 51.312,-1.04 52.724,-1.04C65.104,-1.04 96.985,-39.828 123.953,-87.647C122.477,-87.762 120.967,-87.819 119.456,-87.819C108.668,-87.819 100.439,-84.866 100.358,-84.837C100.015,-84.711 99.663,-84.648 99.309,-84.648C98.061,-84.648 96.928,-85.435 96.494,-86.605C95.917,-88.155 96.71,-89.887 98.263,-90.465C98.634,-90.603 107.493,-93.834 119.345,-93.834C121.922,-93.834 124.485,-93.68 126.971,-93.377C135.601,-111.729 143.471,-125.723 143.804,-126.313C144.335,-127.255 145.337,-127.841 146.423,-127.841C146.895,-127.841 147.365,-127.727 147.787,-127.511C149.229,-126.773 149.822,-125.043 149.143,-123.574C144.451,-113.471 139.12,-102.948 133.29,-92.285C137.513,-91.401 141.993,-90.954 146.621,-90.954C156.264,-90.954 163.421,-92.915 163.72,-92.998C163.987,-93.076 164.266,-93.116 164.546,-93.116C165.879,-93.116 167.069,-92.225 167.438,-90.949C167.899,-89.362 166.981,-87.694 165.394,-87.231C165.074,-87.137 157.438,-84.925 146.727,-84.925C141.389,-84.925 136.192,-85.48 131.284,-86.573C131.06,-86.624 130.837,-86.663 130.615,-86.703L130.533,-86.718C119.606,-62.833 102.783,-20.989 111.401,-6.246C113.448,-2.742 116.948,-1.04 122.104,-1.04C128.623,-1.04 136.412,-3.445 145.263,-8.192C144.887,-9.535 144.641,-10.963 144.53,-12.443C142.72,-36.558 171.704,-68.599 192.711,-72.121C194.082,-72.351 195.37,-72.467 196.538,-72.467C200.118,-72.467 202.732,-71.384 204.309,-69.247C206.639,-66.079 206.184,-61.236 202.954,-54.853C196.165,-41.428 175.269,-18.883 153.197,-5.631C155.69,-2.681 159.935,-1.137 165.822,-1.039L166.244,-1.036C174.694,-1.036 185.911,-4.842 197.859,-11.756C197.132,-14.697 196.975,-17.928 197.394,-21.366C199.673,-40.108 220.107,-64.288 238.685,-64.288L239.056,-64.284C243.223,-64.218 246.079,-62.848 247.544,-60.213C249.382,-56.908 248.506,-52.215 244.942,-46.266C238.153,-34.941 221.893,-19.757 205.296,-9.224C207.675,-5.178 212.049,-2.399 218.307,-0.963C221.019,-0.341 223.784,-0.026 226.529,-0.026L226.535,-0.026C249.301,-0.028 267.128,-21.321 271.611,-32.72C272.066,-33.877 273.165,-34.623 274.411,-34.623C274.785,-34.623 275.155,-34.553 275.504,-34.415C276.25,-34.122 276.839,-33.556 277.158,-32.821C277.479,-32.085 277.494,-31.269 277.2,-30.522C271.407,-15.791 251.363,6.008 226.74,6.009" style="fill:rgb(255,205,6);fill-rule:nonzero;"/>
        </g>
        <g transform="matrix(0.832862,0,0,0.832862,406.93,55.096)">
            <path d="M0,108.248C-0.376,106.067 -0.344,103.872 -0.095,101.836C2.081,83.915 21.102,63.767 35.745,63.767C35.83,63.767 35.918,63.767 36.003,63.768C37.158,63.786 39.184,63.971 39.757,65.003C40.349,66.068 39.999,68.841 37.247,73.434C30.896,84.029 16.083,98.009 0,108.248M-52.937,109.681C-54.295,91.542 -31.151,59.513 -9.342,55.856C-8.252,55.673 -7.265,55.582 -6.403,55.582C-4.745,55.582 -3.573,55.916 -3.099,56.56C-2.372,57.546 -2.474,60.334 -4.932,65.195C-11.482,78.147 -32.012,99.488 -52.609,111.993C-52.767,111.262 -52.875,110.491 -52.937,109.681M-190.394,121.988C-192.341,121.988 -195.007,121.414 -196.656,118.678C-196.853,118.351 -197.065,117.938 -197.269,117.428C-178.45,107.787 -158.968,92.506 -147.129,79.338C-147.218,79.492 -147.309,79.648 -147.397,79.803C-160.94,103.171 -181.994,121.988 -190.394,121.988M-190.963,89.386C-179.727,68.12 -156.471,55.067 -145.837,55.067C-144.737,55.067 -143.771,55.208 -142.97,55.491C-142.126,55.79 -140.146,56.492 -140.994,60.781C-143.187,71.858 -171.085,98.233 -198.165,112.476C-198.272,107.798 -196.813,100.458 -190.963,89.386M-258.343,92.715C-258.363,92.713 -258.385,92.713 -258.408,92.713C-258.471,92.713 -258.533,92.715 -258.595,92.72C-249.328,79.584 -235.994,65.969 -217.938,59.277C-209.277,56.072 -207.569,57.569 -207.556,57.583C-207.448,57.697 -207.232,58.629 -208.214,60.81C-213.086,71.631 -237.666,92.725 -257.604,92.725C-257.849,92.725 -258.098,92.722 -258.343,92.715M-203.74,-14.402C-203.463,-14.43 -203.204,-14.444 -202.965,-14.444C-202.02,-14.444 -201.401,-14.22 -201.129,-13.775C-199.284,-10.786 -203.125,1.196 -215.857,21.228C-224.113,34.217 -240.984,57.124 -259.03,77.817C-239.381,29.625 -213.697,-13.398 -203.74,-14.402M72.36,88.578C71.077,88.072 69.611,88.704 69.102,89.996C63.689,103.759 41.632,128.108 15.231,122.052C7.863,120.36 3.779,117.011 1.675,113.148C19.384,101.992 35.273,86.501 41.557,76.019C45.024,70.232 45.898,65.705 44.151,62.562C42.776,60.092 40.064,58.806 36.082,58.742C17.588,58.425 -2.798,82.426 -5.085,101.229C-5.517,104.786 -5.324,108.063 -4.538,111.018C-15.948,117.667 -27.745,122.127 -37.152,121.988C-43.5,121.883 -47.963,120.134 -50.499,116.772C-28.562,103.746 -7.437,81.286 -0.448,67.462C2.689,61.258 3.161,56.587 0.949,53.58C-1.031,50.895 -4.78,49.996 -10.173,50.898C-31,54.392 -59.739,86.151 -57.946,110.058C-57.845,111.414 -57.609,112.975 -57.122,114.588C-65.509,119.129 -73.738,121.988 -80.861,121.988C-86.205,121.988 -89.844,120.206 -91.986,116.538C-100.049,102.747 -86.708,65.785 -72.72,35.267C-72.338,35.343 -71.96,35.4 -71.575,35.485C-53.863,39.433 -38.353,35.025 -37.708,34.835C-36.377,34.448 -35.611,33.056 -35.997,31.724C-36.383,30.391 -37.797,29.626 -39.108,30.009C-39.256,30.05 -54.03,34.218 -70.418,30.593C-64.625,20.023 -59.154,9.285 -54.266,-1.243C-53.699,-2.468 -54.2,-3.923 -55.4,-4.538C-56.602,-5.153 -58.074,-4.707 -58.735,-3.535C-59.555,-2.081 -67.235,11.656 -75.702,29.689C-91.238,27.701 -103.94,32.311 -104.532,32.53C-105.831,33.015 -106.495,34.461 -106.011,35.762C-105.635,36.774 -104.676,37.399 -103.655,37.399C-103.364,37.399 -103.069,37.349 -102.778,37.242C-102.654,37.194 -91.71,33.23 -78.212,34.466C-106.781,85.3 -138.047,121.988 -150.241,121.988C-151.939,121.988 -152.322,121.335 -152.489,121.057C-156.49,114.264 -139.946,84.37 -134.512,74.546C-132.434,70.79 -131.501,69.093 -131.164,68.21C-130.592,66.705 -129.073,62.706 -131.907,61.358C-133.092,60.787 -134.178,60.571 -136.344,62.897C-136.232,62.507 -136.138,62.125 -136.066,61.756C-134.538,54.04 -139.211,51.491 -141.292,50.755C-152.659,46.731 -182.023,61.706 -195.406,87.038C-201.293,98.181 -203.885,107.78 -203.03,114.904C-212.258,119.259 -221.201,121.988 -228.789,121.988C-245.565,121.988 -252.839,104.734 -255.113,97.663C-233.203,96.129 -209.028,74.864 -203.629,62.873C-201.509,58.16 -202.596,55.53 -203.881,54.153C-206.466,51.391 -211.489,51.522 -219.686,54.565C-230.628,58.619 -239.885,64.949 -247.617,72.167C-231.459,52.736 -217.614,33.365 -211.616,23.925C-202.438,9.483 -192.426,-9.237 -196.85,-16.415C-197.844,-18.018 -199.945,-19.86 -204.244,-19.402C-218.586,-17.956 -248.759,36.853 -268.411,88.239C-285.993,107.111 -303.479,121.988 -314.199,121.988C-316.505,121.988 -317.003,121.144 -317.17,120.867C-320.311,115.551 -308.973,94.938 -302.2,82.622C-294.029,67.763 -291.503,62.705 -292.877,59.645C-293.319,58.662 -294.18,57.958 -295.236,57.718C-300.275,56.553 -306.656,62.847 -319.392,76.024C-328.112,85.047 -337.997,95.275 -348.608,103.248C-354.953,108.012 -361.069,109.81 -366.795,108.598C-376.497,106.535 -382.207,96.442 -382.263,96.341C-382.937,95.133 -384.458,94.691 -385.679,95.361C-386.889,96.033 -387.331,97.556 -386.664,98.77C-386.389,99.266 -379.834,110.939 -367.881,113.505C-360.68,115.046 -353.167,112.955 -345.592,107.267C-334.659,99.055 -324.188,88.221 -315.776,79.517C-309.689,73.221 -301.686,64.938 -297.896,63.009C-299.098,66.549 -303.198,74.006 -306.604,80.201C-318.017,100.953 -325.766,116.201 -321.496,123.424C-320.527,125.062 -318.475,127.014 -314.199,127.014C-303.531,127.014 -288.309,115.501 -272.73,99.956C-275.646,108.199 -278.231,116.235 -280.368,123.818C-280.741,125.137 -279.988,126.51 -278.676,126.906C-277.348,127.303 -275.977,126.575 -275.558,125.273C-275.473,125.01 -270.911,111.244 -260.813,95.971C-260.146,98.749 -252.744,127.014 -228.789,127.014C-220.952,127.014 -211.558,124.186 -201.797,119.643C-201.548,120.212 -201.271,120.756 -200.959,121.273C-198.728,124.975 -194.975,127.014 -190.394,127.014C-180.655,127.014 -163.137,111.832 -149.632,92.602C-156.238,106.399 -160.08,118.073 -156.818,123.609C-155.901,125.162 -154.017,127.014 -150.241,127.014C-136.903,127.014 -112.87,99.325 -89.926,63.532C-98.018,85.899 -102.837,107.936 -96.325,119.074C-93.246,124.342 -88.044,127.014 -80.861,127.014C-72.832,127.014 -63.886,124.023 -54.927,119.264C-52.132,123.375 -46.903,126.853 -37.237,127.014C-26.665,127.181 -14.381,122.561 -2.628,115.749C0.461,121.238 6.155,125.126 14.106,126.95C17.408,127.707 20.638,128.056 23.775,128.056C48.902,128.054 68.322,105.712 73.78,91.835C74.287,90.544 73.652,89.084 72.36,88.578" style="fill:rgb(255,205,6);fill-rule:nonzero;"/>
        </g>
        <g transform="matrix(0.832862,0,0,0.832862,176.636,69.7853)">
            <path d="M0,20.252C-1.233,20.252 -2.327,19.513 -2.784,18.371L-4.664,13.707L-9.349,15.518C-9.698,15.651 -10.061,15.719 -10.432,15.719C-11.666,15.719 -12.79,14.946 -13.232,13.797C-13.828,12.255 -13.058,10.513 -11.516,9.915L-6.91,8.136L-8.53,4.121C-8.831,3.378 -8.824,2.562 -8.51,1.825C-8.196,1.085 -7.614,0.513 -6.87,0.214C-6.509,0.071 -6.134,0 -5.753,0C-4.514,0 -3.419,0.737 -2.961,1.877L-1.311,5.972L2.799,4.383C3.149,4.249 3.512,4.181 3.881,4.181C5.118,4.181 6.246,4.953 6.684,6.103C7.28,7.645 6.51,9.387 4.968,9.985L0.935,11.543L2.784,16.127C3.085,16.87 3.078,17.686 2.764,18.424C2.449,19.163 1.866,19.735 1.122,20.034C0.763,20.179 0.385,20.252 0,20.252" style="fill:rgb(255,205,6);fill-rule:nonzero;"/>
        </g>
        <g transform="matrix(0.832862,0,0,0.832862,167.947,73.6952)">
            <path d="M0,10.534C0.301,10.534 0.608,10.48 0.906,10.366L6.04,8.382L8.102,13.494C8.494,14.474 9.437,15.068 10.432,15.068C10.746,15.068 11.063,15.009 11.371,14.886C12.66,14.366 13.282,12.902 12.761,11.616L10.728,6.571L15.222,4.834C16.515,4.333 17.159,2.879 16.658,1.583C16.164,0.291 14.705,-0.354 13.409,0.145L8.847,1.908L7.015,-2.634C6.499,-3.924 5.032,-4.534 3.747,-4.027C2.457,-3.507 1.835,-2.042 2.356,-0.757L4.161,3.719L-0.907,5.677C-2.199,6.177 -2.844,7.632 -2.343,8.928C-1.96,9.924 -1.008,10.534 0,10.534" style="fill:rgb(255,205,6);fill-rule:nonzero;"/>
        </g>
    </g>
</svg>
