<svg xmlns="http://www.w3.org/2000/svg" width="76.5" height="90" viewBox="0 0 76.5 90"><rect width="76.5" height="90" fill="#b8359b"/><path d="M-16.212-41.16h6.048a10.312,10.312,0,0,1,7.28,2.576c2.016,1.9,3.36,5.04,3.36,9.744s-1.344,7.784-3.36,9.688a10.414,10.414,0,0,1-7.28,2.688V0h-6.048Zm6.048,18.536c1.848,0,3.024-.336,3.7-1.288.672-.9.84-2.408.84-4.7s-.168-3.92-.84-4.928S-8.316-35-10.164-35ZM3.5-41.16H17.332v6.216H9.548v10.808h5.6v6.608h-5.6V-6.216h7.784V0H3.5Z" transform="translate(36.9 63.7)" fill="#fff"/></svg>