<svg xmlns="http://www.w3.org/2000/svg" viewBox="0 0 339.97 95.6" width="340" height="95"><defs><style>.cls-1{fill:#9bd3b1;}.cls-2{fill:#1b4ba0;}</style></defs><title>logo</title><g id="Layer_2" data-name="Layer 2"><g id="Layer_1-2" data-name="Layer 1"><path class="cls-1" d="M77.29,94.11a2.31,2.31,0,0,0,.46.47,2.34,2.34,0,0,0,1.45.48A2.07,2.07,0,0,0,80,94.9a1.85,1.85,0,0,0,1-1.08A2.21,2.21,0,0,0,81.2,93a1.51,1.51,0,0,0-.33-1,2.72,2.72,0,0,0-.82-.63A9.77,9.77,0,0,0,79,90.91a5.45,5.45,0,0,1-1.06-.52,2.81,2.81,0,0,1-.82-.8,2.33,2.33,0,0,1-.33-1.32A2.67,2.67,0,0,1,77,87.2a2.34,2.34,0,0,1,.61-.83,2.88,2.88,0,0,1,1-.55,4.2,4.2,0,0,1,2.42,0,2.9,2.9,0,0,1,.91.5,3.11,3.11,0,0,0-.21.5q-.08.27-.17.67h-.17a3.69,3.69,0,0,0-.19-.43,1.63,1.63,0,0,0-.32-.43,1.81,1.81,0,0,0-.48-.33,1.56,1.56,0,0,0-.67-.13,2,2,0,0,0-.72.13,1.73,1.73,0,0,0-.57.36,1.59,1.59,0,0,0-.38.55,1.81,1.81,0,0,0-.13.7,1.52,1.52,0,0,0,.33,1,2.81,2.81,0,0,0,.82.64,8.11,8.11,0,0,0,1.06.46,5.86,5.86,0,0,1,1.06.5,2.68,2.68,0,0,1,.82.76,2.09,2.09,0,0,1,.33,1.23,3.23,3.23,0,0,1-.23,1.22,2.86,2.86,0,0,1-.67,1,3,3,0,0,1-1.08.66,4.22,4.22,0,0,1-1.45.23,3.61,3.61,0,0,1-1.41-.23,3.81,3.81,0,0,1-.9-.52,3.27,3.27,0,0,0,.17-.58q0-.26.09-.67H77A2.75,2.75,0,0,0,77.29,94.11Z"/><path class="cls-1" d="M87.06,87.6q0-.9-.08-1.79l1.25,0,1.25,0,1.25,0,1.25,0a2.12,2.12,0,0,0,0,.84l-.82-.06-.78-.06-.9,0-1.18,0q0,.45,0,.85c0,.27,0,.58,0,.92s0,.72,0,1.06,0,.61,0,.78h1.11l.9,0L91,90l.65,0a2.27,2.27,0,0,0,0,.43,2.19,2.19,0,0,0,0,.42l-.85-.07-1,0H88.26c0,.08,0,.17,0,.27s0,.22,0,.37v1.39q0,.8,0,1.32c0,.35,0,.61,0,.78h1l1,0,1-.06a6.5,6.5,0,0,0,.79-.1,1,1,0,0,0,0,.22c0,.08,0,.15,0,.22a1.29,1.29,0,0,0,0,.36q-.63,0-1.25,0H88.26l-1.27,0q0-.9.08-1.79t0-1.81V89.42Q87.1,88.49,87.06,87.6Z"/><path class="cls-1" d="M98.39,94.32l-.53-1.71-.62-2-.62-2q-.29-.95-.54-1.7T95.7,85.8l.35,0,.35,0,.35,0,.35,0q.27,1.06.52,2t.54,1.89q.29,1,.62,2l.75,2.39h0l.35-1,.49-1.47.56-1.67q.29-.87.55-1.66t.45-1.44q.2-.65.28-1a1.55,1.55,0,0,0,.92,0q.1.38.3,1l.46,1.46q.25.81.54,1.67l.55,1.67.48,1.44.34,1h0l.3-1,.46-1.47q.26-.82.53-1.72l.52-1.72.43-1.46q.19-.64.26-1l.25,0,.25,0,.25,0,.25,0q-.14.32-.41,1.06t-.59,1.69q-.33,1-.69,2l-.69,2-.59,1.72q-.26.76-.39,1.1a4,4,0,0,0-1,0q-.63-1.95-1.25-3.91t-1.33-4.07h0l-.3.86-.42,1.21-.5,1.44-.53,1.55-.52,1.54-.46,1.37a4.25,4.25,0,0,0-1,0Z"/><path class="cls-1" d="M113.66,87.62q0-.89-.08-1.81l.35,0,.34,0,.34,0,.35,0q0,.92-.08,1.81t0,1.81v2.41q0,.92,0,1.82t.08,1.76c-.21,0-.44,0-.69,0s-.47,0-.69,0q0-.87.08-1.76t0-1.82V89.43Q113.7,88.51,113.66,87.62Z"/><path class="cls-1" d="M124.84,91.79,121.2,87.9c0,.26,0,.61,0,1s0,1,0,1.79q0,.29,0,.73t0,.91q0,.48,0,1c0,.33,0,.63,0,.91s0,.52,0,.73,0,.35,0,.43a3.8,3.8,0,0,0-.49,0,4.27,4.27,0,0,0-.52,0c0-.09,0-.27.06-.52s0-.55.06-.9,0-.73.06-1.14,0-.82.06-1.23,0-.81,0-1.2,0-.74,0-1q0-1.34,0-2.31t0-1.44h.22l1.83,2,1.93,2.09,1.82,1.95q.86.92,1.5,1.56v-1.9q0-1.47,0-2.86t-.09-2.62a2,2,0,0,0,.48.07,1.94,1.94,0,0,0,.45-.07c0,.21,0,.51-.06.92s0,.85-.07,1.32,0,.92-.06,1.37,0,.81,0,1.08v.84q0,.48,0,1c0,.35,0,.69,0,1s0,.68,0,1,0,.57,0,.79v.46h-.2Q126.66,93.74,124.84,91.79Z"/><path class="cls-1" d="M141.58,87a3.78,3.78,0,0,0-.7-.44,4.36,4.36,0,0,0-.85-.31,4.08,4.08,0,0,0-1-.12,4.81,4.81,0,0,0-1.62.27,3.46,3.46,0,0,0-1.3.82,3.84,3.84,0,0,0-.87,1.4,6.4,6.4,0,0,0,0,3.86,3.73,3.73,0,0,0,.82,1.39,3.65,3.65,0,0,0,1.32.88,4.74,4.74,0,0,0,1.76.31l.62,0a6.22,6.22,0,0,0,.62-.08,4.5,4.5,0,0,0,.56-.14,2,2,0,0,0,.44-.2c0-.28,0-.56,0-.84s0-.56,0-.85,0-.65,0-1,0-.64,0-.94a3.41,3.41,0,0,0,.67.07h.31a1.5,1.5,0,0,0,.29-.06q0,.32,0,1t0,1.83c0,.19,0,.38,0,.57s0,.38,0,.57c-.2.08-.44.15-.74.23a8.4,8.4,0,0,1-.94.2l-1,.14a7.25,7.25,0,0,1-.9.06,7.81,7.81,0,0,1-2.25-.3,4.39,4.39,0,0,1-1.7-.93,4.17,4.17,0,0,1-1.08-1.57,5.77,5.77,0,0,1-.38-2.17,5.42,5.42,0,0,1,.39-2.12A4.37,4.37,0,0,1,135,86.94a4.8,4.8,0,0,1,1.73-1,7.09,7.09,0,0,1,2.25-.34,9.37,9.37,0,0,1,1.27.08,6.85,6.85,0,0,1,1,.2,6.41,6.41,0,0,1,.75.27l.57.27a2.42,2.42,0,0,0-.2.5,3.31,3.31,0,0,0-.12.57h-.17A3.62,3.62,0,0,0,141.58,87Z"/><path class="cls-1" d="M154.43,87.62q0-.89-.08-1.81l1.25,0,1.25,0,1.27,0,1.4,0a2.12,2.12,0,0,0,0,.84l-.91-.08-1.08-.06-1.06,0h-.85q0,.49,0,.94t0,.9c0,.33,0,.63,0,.9s0,.56,0,.86q.92,0,1.83,0t1.79-.11a1.61,1.61,0,0,0,0,.84l-.79-.06-.92,0h-1.9v1.19q0,.92,0,1.82t.08,1.76c-.21,0-.44,0-.69,0s-.47,0-.69,0q0-.87.08-1.76t0-1.82V89.43Q154.46,88.51,154.43,87.62Z"/><path class="cls-1" d="M163.86,88.51a4.43,4.43,0,0,1,1.08-1.58,4.65,4.65,0,0,1,1.66-1,6.85,6.85,0,0,1,4.24,0,4.65,4.65,0,0,1,1.66,1,4.43,4.43,0,0,1,1.08,1.58,6,6,0,0,1,0,4.24,4.32,4.32,0,0,1-2.74,2.53,7.29,7.29,0,0,1-4.24,0,4.32,4.32,0,0,1-2.74-2.53,6,6,0,0,1,0-4.24Zm8.44.11a3.81,3.81,0,0,0-.82-1.4,3.27,3.27,0,0,0-1.23-.82,4.52,4.52,0,0,0-3.05,0,3.27,3.27,0,0,0-1.23.82,3.81,3.81,0,0,0-.82,1.4,7,7,0,0,0,0,4A3.82,3.82,0,0,0,166,94a3.26,3.26,0,0,0,1.23.82,4.5,4.5,0,0,0,3.05,0,3.26,3.26,0,0,0,1.23-.82,3.82,3.82,0,0,0,.82-1.4,7,7,0,0,0,0-4Z"/><path class="cls-1" d="M178.69,87.62q0-.89-.08-1.81l.8,0,.8,0q.41,0,.8,0c.26,0,.53,0,.8,0a5.4,5.4,0,0,1,1.12.11,2.73,2.73,0,0,1,.93.37,1.88,1.88,0,0,1,.63.68,2.43,2.43,0,0,1-.07,2.21,2.83,2.83,0,0,1-.74.8,3.65,3.65,0,0,1-.93.49,4.71,4.71,0,0,1-.9.23l.46.59.66.83.76,1,.76,1,.69.83q.32.38.52.57a3,3,0,0,0-.42,0h-.83a2.75,2.75,0,0,0-.41,0l-.64-.88q-.43-.59-.95-1.26t-1.06-1.34q-.54-.67-1-1.13h-.53v1q0,.92,0,1.82t.08,1.76c-.21,0-.44,0-.69,0s-.47,0-.69,0q0-.87.08-1.76t0-1.82V89.43Q178.73,88.51,178.69,87.62Zm1.61,2.67h.51a4.42,4.42,0,0,0,.9-.1,2.6,2.6,0,0,0,.86-.34,2,2,0,0,0,.65-.66,1.93,1.93,0,0,0,.26-1,1.8,1.8,0,0,0-.2-.9,1.61,1.61,0,0,0-.52-.57,2,2,0,0,0-.7-.29,3.75,3.75,0,0,0-.74-.08l-.81,0-.55,0-.06,1.53q0,.76,0,1.51v.8A2.77,2.77,0,0,0,180.3,90.28Z"/><path class="cls-1" d="M203.61,95.09a3.71,3.71,0,0,1-.66.24q-.39.11-.86.19a5.75,5.75,0,0,1-1,.08,6.36,6.36,0,0,1-2-.32,4.29,4.29,0,0,1-1.62-1,4.51,4.51,0,0,1-1.06-1.57,6,6,0,0,1,0-4.24,4.43,4.43,0,0,1,1.08-1.58,4.65,4.65,0,0,1,1.66-1,6.42,6.42,0,0,1,2.13-.34,7,7,0,0,1,1.69.19,7.86,7.86,0,0,1,1.35.46,1.81,1.81,0,0,0-.18.53l-.11.56-.08,0a3.07,3.07,0,0,0-.39-.38,4.24,4.24,0,0,0-.59-.41,3.71,3.71,0,0,0-.76-.33,3,3,0,0,0-.92-.13,4.33,4.33,0,0,0-1.53.27,3.27,3.27,0,0,0-1.23.82,3.81,3.81,0,0,0-.82,1.4,7,7,0,0,0,0,4,3.82,3.82,0,0,0,.82,1.4,3.26,3.26,0,0,0,1.23.82,4.31,4.31,0,0,0,1.53.27,3.27,3.27,0,0,0,.93-.13,4.89,4.89,0,0,0,.78-.3,4.59,4.59,0,0,0,.64-.38l.48-.36.06.06-.13.83A1.83,1.83,0,0,1,203.61,95.09Z"/><path class="cls-1" d="M216.19,87.29a14.41,14.41,0,0,0-.07-1.48l.29,0,.28,0a1.51,1.51,0,0,0,.42-.07q0,.49-.08,1.17c0,.45-.05.94-.07,1.46s0,1-.06,1.6,0,1.08,0,1.59a5.09,5.09,0,0,1-.29,1.68,3.53,3.53,0,0,1-.78,1.26,3.24,3.24,0,0,1-1.24.78,5,5,0,0,1-1.69.27,4.18,4.18,0,0,1-3.05-1,4.11,4.11,0,0,1-1-3q0-.66,0-1.17t0-1q0-1.18,0-2.09t-.06-1.54l.36,0,.36,0,.3,0,.3,0q0,.31-.06.8t-.06,1.13q0,.63,0,1.36t0,1.51q0,.48,0,1a6.87,6.87,0,0,0,.1,1,4.18,4.18,0,0,0,.27.92,2.27,2.27,0,0,0,.54.77,2.46,2.46,0,0,0,.88.52,4,4,0,0,0,1.32.19,3.3,3.3,0,0,0,1.29-.22,2.47,2.47,0,0,0,.86-.59,2.68,2.68,0,0,0,.53-.84,4.73,4.73,0,0,0,.27-1,7.75,7.75,0,0,0,.1-1q0-.52,0-1Q216.2,88.37,216.19,87.29Z"/><path class="cls-1" d="M222.57,87.62q0-.89-.08-1.81l.8,0,.8,0q.41,0,.8,0c.26,0,.53,0,.8,0a5.4,5.4,0,0,1,1.12.11,2.73,2.73,0,0,1,.93.37,1.88,1.88,0,0,1,.63.68,2.43,2.43,0,0,1-.07,2.21,2.83,2.83,0,0,1-.74.8,3.65,3.65,0,0,1-.93.49,4.71,4.71,0,0,1-.9.23l.46.59.66.83.76,1,.76,1,.69.83q.32.38.52.57a3,3,0,0,0-.42,0h-.83a2.75,2.75,0,0,0-.41,0l-.64-.88q-.43-.59-.95-1.26t-1.06-1.34q-.54-.67-1-1.13h-.53v1q0,.92,0,1.82t.08,1.76c-.21,0-.44,0-.69,0s-.47,0-.69,0q0-.87.08-1.76t0-1.82V89.43Q222.6,88.51,222.57,87.62Zm1.61,2.67h.51a4.42,4.42,0,0,0,.9-.1,2.6,2.6,0,0,0,.86-.34,2,2,0,0,0,.65-.66,1.93,1.93,0,0,0,.26-1,1.8,1.8,0,0,0-.2-.9,1.61,1.61,0,0,0-.52-.57,2,2,0,0,0-.7-.29,3.75,3.75,0,0,0-.74-.08l-.81,0-.55,0-.06,1.53q0,.76,0,1.51v.8A2.77,2.77,0,0,0,224.18,90.28Z"/><path class="cls-1" d="M235.43,93.43l-1-2.45-1.08-2.63L232.3,85.8l.38,0,.35,0,.35,0,.38,0q.31.92.68,1.94t.78,2.07l.85,2.13q.43,1.08.88,2.14.25-.57.55-1.28t.6-1.47q.3-.76.59-1.55l.57-1.52q.27-.73.5-1.36t.38-1.09a1.94,1.94,0,0,0,1,0q-1.09,2.44-2.1,4.83t-1.93,4.79a3.57,3.57,0,0,0-.46,0,3,3,0,0,0-.46,0Z"/><path class="cls-1" d="M245.54,87.6q0-.9-.08-1.79l1.25,0,1.25,0,1.25,0,1.25,0a2.12,2.12,0,0,0,0,.84l-.82-.06-.78-.06-.9,0-1.18,0q0,.45,0,.85c0,.27,0,.58,0,.92s0,.72,0,1.06,0,.61,0,.78h1.11l.9,0,.75,0,.65,0a2.27,2.27,0,0,0,0,.43,2.19,2.19,0,0,0,0,.42l-.85-.07-1,0h-1.59c0,.08,0,.17,0,.27s0,.22,0,.37v1.39q0,.8,0,1.32c0,.35,0,.61,0,.78h1l1,0,1-.06a6.5,6.5,0,0,0,.79-.1,1,1,0,0,0,0,.22c0,.08,0,.15,0,.22a1.29,1.29,0,0,0,0,.36q-.63,0-1.25,0h-2.54l-1.27,0q0-.9.08-1.79t0-1.81V89.42Q245.57,88.49,245.54,87.6Z"/><path class="cls-1" d="M255.37,94.11a2.31,2.31,0,0,0,.46.47,2.34,2.34,0,0,0,1.45.48,2.07,2.07,0,0,0,.83-.16,1.85,1.85,0,0,0,1-1.08,2.21,2.21,0,0,0,.14-.79,1.51,1.51,0,0,0-.33-1,2.72,2.72,0,0,0-.82-.63,9.77,9.77,0,0,0-1.06-.46,5.45,5.45,0,0,1-1.06-.52,2.81,2.81,0,0,1-.82-.8,2.33,2.33,0,0,1-.33-1.32,2.67,2.67,0,0,1,.21-1.07,2.34,2.34,0,0,1,.61-.83,2.88,2.88,0,0,1,1-.55,4.2,4.2,0,0,1,2.42,0,2.9,2.9,0,0,1,.91.5,3.11,3.11,0,0,0-.21.5q-.08.27-.17.67h-.17a3.69,3.69,0,0,0-.19-.43,1.63,1.63,0,0,0-.32-.43,1.81,1.81,0,0,0-.48-.33,1.56,1.56,0,0,0-.67-.13,2,2,0,0,0-.72.13,1.73,1.73,0,0,0-.57.36,1.59,1.59,0,0,0-.38.55,1.81,1.81,0,0,0-.13.7,1.52,1.52,0,0,0,.33,1,2.81,2.81,0,0,0,.82.64,8.11,8.11,0,0,0,1.06.46,5.86,5.86,0,0,1,1.06.5,2.68,2.68,0,0,1,.82.76,2.09,2.09,0,0,1,.33,1.23,3.23,3.23,0,0,1-.23,1.22,2.86,2.86,0,0,1-.67,1,3,3,0,0,1-1.08.66,4.22,4.22,0,0,1-1.45.23,3.61,3.61,0,0,1-1.41-.23,3.81,3.81,0,0,1-.9-.52,3.27,3.27,0,0,0,.17-.58q0-.26.09-.67h.17A2.75,2.75,0,0,0,255.37,94.11Z"/><path class="cls-2" d="M38.93,58.14c0-3,1.44-6.91,4.61-10.46,5.38-5.86,11.42-9.12,15-9.12,2,0,3.84.77,3.84,3.07,0,.19-.1.38-.1.67a1.41,1.41,0,0,1,1.25,1.54,1.55,1.55,0,0,1-.29.86,60.27,60.27,0,0,0-3.46,6c-1.25,2.59-2.11,4.9-2.11,6.43,0,.86.48,1.34,1.15,1.34,1.54,0,4.8-2.11,7.87-4.22,1.92-1.34,3.74-2.69,5.09-3.74a1.6,1.6,0,0,1,2.11.29,1.75,1.75,0,0,1-.29,2.11c-1.25,1-3.65,2.78-5.47,4-4,2.78-7.29,4.51-9.31,4.51-2.78,0-4.13-2-4.13-4.42a11.79,11.79,0,0,1,.86-4.13l-4.7,4.9c-3,3.17-5.76,5.18-8.16,5.18C39.89,62.94,38.93,60.26,38.93,58.14ZM59.28,41.82a1.28,1.28,0,0,0-.77-.29c-2.4,0-7.49,2.21-12.67,8.06C43.06,52.67,41.9,56,41.9,58.14c0,.77.1,1.82.67,1.82,1.34,0,4.22-2.5,6.72-5,1.73-1.63,3.26-3.36,10.85-11.52C59.47,43.26,59.38,42.5,59.28,41.82Z"/><path class="cls-2" d="M72.72,53.34l-2.69,2a1.43,1.43,0,0,1-2.11-.29A1.5,1.5,0,0,1,68.21,53S75.7,47.58,78,46c1.82-1.34,3.94-2.69,5.66-4a5.83,5.83,0,0,1,3.07-1.25c2.21,0,2.69,2.4,2.69,3.94a25.62,25.62,0,0,1-3.07,10.85h1.06a16.88,16.88,0,0,0,5.47-1,38.5,38.5,0,0,0,7-4.13,1.69,1.69,0,0,1,2.11.29,1.75,1.75,0,0,1-.29,2.11,28.59,28.59,0,0,1-7.78,4.61,20.53,20.53,0,0,1-6.43,1.06,17,17,0,0,1-3.26-.19c-1.34,1.54-3.17,3.17-5.37,3.17C75.12,61.41,73.2,56.32,72.72,53.34ZM78,55.84a18.77,18.77,0,0,1-2-1.73,12.11,12.11,0,0,0,.77,2.21c.38,1,1.34,2.11,2.21,2.11a3.23,3.23,0,0,0,1.92-1.06A20.31,20.31,0,0,1,78,55.84Zm1.63-2.59a10.17,10.17,0,0,0,3.55,1.63c.67-.67,1.92-3.55,2.69-6.14a17.6,17.6,0,0,0,.58-5.09s-.48.48-4.9,3.55l-4.8,3.26A15.63,15.63,0,0,0,79.63,53.25Z"/><path class="cls-2" d="M99.69,61.69l3.46-10.08a21.3,21.3,0,0,1-1.92,1.63,1.5,1.5,0,0,1-2.11-.1,1.43,1.43,0,0,1,.1-2.11c.58-.58,2.59-2.3,6.14-5.66,4.51-12.38,7.3-20.35,11-27.65,1.82-3.46,4.42-7.78,8.54-7.78,2.78,0,3.74,2.5,3.74,4.61,0,3.17-1.73,8.16-5.09,14C120.43,34.14,112.85,42.11,108,47l-1.82,5.18a38,38,0,0,1,8-7.78,7.58,7.58,0,0,1,4.13-1.54c2.88,0,3.94,2.88,3.94,5,0,1.06-.19,2-1.15,5.09s-1.54,4.8-1.54,5.57c0,.48.67.58,1.15.58,1.54,0,4.32-1.06,8.93-4.22q2.45-1.73,5.76-4.32a1.62,1.62,0,0,1,2.11.19,1.57,1.57,0,0,1-.48,2.3c-2.88,2.21-4.13,3.26-6,4.61-4.42,3-7.87,4.42-10.37,4.42s-4-1.63-4-3.55a21.68,21.68,0,0,1,1.44-6,26.62,26.62,0,0,0,1.25-4.7c0-.86-.29-1.82-1.06-1.82a5.61,5.61,0,0,0-2.4,1A29.32,29.32,0,0,0,110.45,52a90.29,90.29,0,0,0-8.06,11,1.81,1.81,0,0,1-1.25.67A1.49,1.49,0,0,1,99.69,61.69Zm19.39-43c-1.44,2.78-4,9.5-8.54,21.5,4.13-4.42,8.16-9,10.46-13.15,2.78-5,4.8-10,4.8-12.67q0-1.44-.86-1.44C122.83,12.93,120.91,15.14,119.09,18.69Z"/><path class="cls-2" d="M152.59,59.58a36.42,36.42,0,0,0,1.82-4.51,17.91,17.91,0,0,0,1.25-5.57c0-1-.19-1.82-1-1.82-1.54,0-5.86,4.13-10,9-1.25,1.44-2.5,2.88-3.65,4.42a1.64,1.64,0,0,1-2.11.29,1.75,1.75,0,0,1-.29-2c.29-.38,1.82-2.4,3.46-5.09a20.38,20.38,0,0,0,2.3-4.9,3.42,3.42,0,0,0,.19-1,.31.31,0,0,0-.29-.29c-1.25,0-3.46,1.92-6,3.94l-3.94,3.07a1.45,1.45,0,0,1-2.11-.29c-.48-.58-.48-1.54-.1-1.82l3.94-3c2.4-1.82,6-4.9,8.25-4.9a3.16,3.16,0,0,1,3.26,3.17,2.14,2.14,0,0,1-.1.86c2.69-2.5,5.47-4.51,7.3-4.51,2.78,0,3.84,2.5,3.84,4.7a21.32,21.32,0,0,1-.58,4.13s2.78-2.78,4.61-4.51c3.55-3.46,7-6.24,8.64-6.24a1.94,1.94,0,0,1,2,2.11,16.19,16.19,0,0,1-1.15,4.51,25.19,25.19,0,0,0-1.54,6.34c0,1.15.48,1.63,1.54,1.63,2.4,0,4.7-1.73,6.72-3.26,1.54-1.15,3.17-2.4,4.51-3.55a1.45,1.45,0,0,1,2.11.29,1.6,1.6,0,0,1-.19,2c-1.44,1.25-3.07,2.59-4.7,3.74-2.21,1.63-5.09,3.74-8.45,3.74s-4.61-1.92-4.61-4.61a23,23,0,0,1,1.73-7.39,14,14,0,0,0,.67-1.82c-1.34,1.06-3.55,3.07-5.57,5-2.78,2.69-6.62,6.72-9.41,9.79a1.59,1.59,0,0,1-1.15.48A1.57,1.57,0,0,1,152.59,59.58Z"/><path class="cls-2" d="M182.54,54.59c0-5.09,4.32-12.48,9.31-14.59a7.54,7.54,0,0,1,2.69-.58,3.56,3.56,0,0,1,3.55,3.65,7.16,7.16,0,0,1-2.5,4.7,20.13,20.13,0,0,1-9.79,4.51,9.28,9.28,0,0,0-.29,2.21c0,2.88,1.63,4.42,4.42,4.42a19.86,19.86,0,0,0,10.56-3.55c2.5-1.63,5.47-3.94,6.62-4.8a1.42,1.42,0,0,1,2.11.19,1.74,1.74,0,0,1-.19,2.11A52,52,0,0,1,201.55,58c-3.84,2.21-7.78,3.84-11.61,3.84C185,61.89,182.54,58.81,182.54,54.59ZM194.35,42.4a4.6,4.6,0,0,0-1.44.38,14.68,14.68,0,0,0-5.76,6,16.63,16.63,0,0,0,6.62-3.36,3.85,3.85,0,0,0,1.34-2.4A.68.68,0,0,0,194.35,42.4Z"/><path class="cls-2" d="M203.76,54a1.55,1.55,0,0,1,.58-1.25,31.42,31.42,0,0,0,4.8-4.13c2.59-2.59,4.42-5.09,4.42-5.86A1.55,1.55,0,0,1,215,41.34a1.44,1.44,0,0,1,1.54,1.44c0,.1-.1.38-.1.48l2.69.86c1.44.48,1.73,1.63,1.73,2.88a14.75,14.75,0,0,1-1.25,4.42c-.58,1.73-1.82,4.8-1.82,5.66a.68.68,0,0,0,.77.67c1.63,0,3.65-1,6.34-2.69,1.63-1.06,3.55-2.5,5.86-4.22a1.3,1.3,0,0,1,1.92.29,1.49,1.49,0,0,1-.1,2.11c-2.4,1.92-4.51,3.46-6.24,4.61-3.07,2-5.38,2.88-7.78,2.88s-3.74-1.15-3.74-3.65c0-2,1-4.42,1.92-6.72.67-1.73,1.15-2.4,1.15-3.36,0-.19-.48-.29-1.06-.48a7.33,7.33,0,0,1-1.44-.58,39.12,39.12,0,0,1-4.61,5.38A27.86,27.86,0,0,1,206.35,55a1.83,1.83,0,0,1-1.15.48A1.31,1.31,0,0,1,203.76,54Z"/><path class="cls-2" d="M230.06,54.59c0-5.09,4.32-12.48,9.31-14.59a7.54,7.54,0,0,1,2.69-.58,3.56,3.56,0,0,1,3.55,3.65,7.16,7.16,0,0,1-2.5,4.7,20.13,20.13,0,0,1-9.79,4.51A9.28,9.28,0,0,0,233,54.5c0,2.88,1.63,4.42,4.42,4.42A19.86,19.86,0,0,0,248,55.36c2.5-1.63,5.47-3.94,6.62-4.8a1.42,1.42,0,0,1,2.11.19,1.74,1.74,0,0,1-.19,2.11A52,52,0,0,1,249.06,58c-3.84,2.21-7.78,3.84-11.61,3.84C232.55,61.89,230.06,58.81,230.06,54.59ZM241.87,42.4a4.6,4.6,0,0,0-1.44.38,14.68,14.68,0,0,0-5.76,6,16.63,16.63,0,0,0,6.62-3.36,3.85,3.85,0,0,0,1.34-2.4A.68.68,0,0,0,241.87,42.4Z"/><path class="cls-2" d="M308.87,29.73a10.24,10.24,0,0,0-2.11-.58,22.81,22.81,0,0,0-4.9-.48,110.28,110.28,0,0,1-6.24,10.66,117.58,117.58,0,0,1-9.21,12A13.88,13.88,0,0,0,287.94,58a3.67,3.67,0,0,0,3.26,1.73c2.4,0,5.28-1.25,8.16-3,2.21-1.34,4.51-3,8.64-6a1.71,1.71,0,0,1,2.11.29,1.65,1.65,0,0,1-.38,2.11,71,71,0,0,1-9.12,6.62,19.21,19.21,0,0,1-9.22,3,7.13,7.13,0,0,1-6-3,12,12,0,0,1-1.82-5.57c-4.8,4.42-9.79,7.49-14.59,7.49A6.45,6.45,0,0,1,263.56,59c-1.54-2.11-2.5-5.76-2.88-9.31,0,0-1.34,1.15-2.69,2.21s-2.78,2.21-4.22,3.26a1.55,1.55,0,0,1-2.11-.29,1.58,1.58,0,0,1,.29-2.11s3-2.3,4.42-3.46a39.66,39.66,0,0,0,4.13-3.74,42.42,42.42,0,0,1,.77-8.25,54.62,54.62,0,0,1,2.3-8l-9.5.67a1.54,1.54,0,0,1-.19-3.07l10.85-.67c1.54-3.17,3.74-7.39,6.33-10a7.53,7.53,0,0,1,5.38-2.4c2.5,0,3.36,2.4,3.36,4.22a22.29,22.29,0,0,1-1.92,7.58c3.84-.19,7.58-.19,11.52-.19a45.18,45.18,0,0,1,5.38-9.41c2.11-2.59,4.32-4.51,6.91-4.51A3.14,3.14,0,0,1,304.45,13a6,6,0,0,1,.77,3.36,28.5,28.5,0,0,1-2.11,9.41,33,33,0,0,1,3.65.38,12.83,12.83,0,0,1,3.65,1.06,1.53,1.53,0,0,1-.58,2.88A1.38,1.38,0,0,1,308.87,29.73ZM263.47,47c.1,4,1,8.16,2.5,10.27a3.55,3.55,0,0,0,2.88,1.44c4.22,0,9.89-4.13,14.49-8.64a51.55,51.55,0,0,1,2-13.34,80.54,80.54,0,0,1,2.78-8.26c-3.74,0-7.49.1-11.62.29A56.7,56.7,0,0,1,271,38.08,79.79,79.79,0,0,1,263.47,47Zm0-4.42A67.75,67.75,0,0,0,268.84,36a58.47,58.47,0,0,0,4.32-7.1l-6.34.38A57.61,57.61,0,0,0,264.23,38C263.94,39.42,263.66,41,263.47,42.59Zm9.5-24c-1.73,1.54-3.36,4.42-4.8,7.58l6.33-.29c1.73-3.65,2.3-6.14,2.3-7.58,0-.86-.1-1.44-.67-1.44A4.81,4.81,0,0,0,273,18.59ZM286.5,46.72a111.44,111.44,0,0,0,7-9.6,82.29,82.29,0,0,0,5-8.64c-2.3-.1-4.22-.1-7-.1-1.25,3.17-2.4,6.34-3.26,9.12A48.81,48.81,0,0,0,286.5,46.72ZM296.77,18.4a51.71,51.71,0,0,0-4.13,7.1c2.78,0,4.9,0,7.3.1a25,25,0,0,0,2.3-9.22c0-.77,0-1.82-.58-1.82C300.23,14.56,298.41,16.1,296.77,18.4Z"/><path class="cls-2" d="M308,58.14a8.68,8.68,0,0,1-.67-3.55c0-3.46,1.92-7.87,7.2-12.38a9.15,9.15,0,0,1,5.09-1.92,3.58,3.58,0,0,1,3.84,3.65,9.46,9.46,0,0,1-.58,3c-1.54,3.94-5.86,6-9.7,6a10.69,10.69,0,0,1-2.59-.29,7.33,7.33,0,0,0-.29,2,5.71,5.71,0,0,0,.38,2.4c.86,1.82,3,3,5.66,3,3.55,0,7.2-1.73,9.89-3.26s9.79-6.34,10.85-9.89a1.16,1.16,0,0,1-.67-1.25A1.56,1.56,0,0,1,338,44.13c1.25,0,2,1.73,2,2.69,0,4.32-9.12,10.56-12.77,12.58-3.46,2-7.3,3.55-10.94,3.55A8.84,8.84,0,0,1,308,58.14Zm3.74-8.45a8.28,8.28,0,0,0,1.54.1c2.78,0,5.86-1.34,6.72-3.94a5.7,5.7,0,0,0,.48-1.82c0-.58-.29-.77-.77-.77a5.55,5.55,0,0,0-3.26,1.25A19.18,19.18,0,0,0,311.75,49.7Z"/><path class="cls-2" d="M21.1,80C12,80,5.26,75.14,2.43,69.89.58,66.48-.2,62.34,0,57.23.65,44.23,7.56,31,19,20.93q1-.87,2-1.68a37.32,37.32,0,0,1-3.14-2.39C14.63,14.13,11.31,11.31,12.51,6,13.1,3.48,15.06,1.55,18,.61c3.54-1.12,8.26-.66,10.08,1a1.5,1.5,0,1,1-2,2.23c-.75-.68-4.22-1.29-7.17-.36-2,.62-3.14,1.71-3.49,3.24-.72,3.16.77,4.82,4.34,7.86a34.91,34.91,0,0,0,3.73,2.75C31.35,11.74,39.6,9.16,47.16,10c2.65.29,4.5,1.17,5.66,2.67A6.6,6.6,0,0,1,54,18.44a6.71,6.71,0,0,1-4,4.46c-10.79,4.45-20.14,1.52-26.3-2-1,.79-1.93,1.55-2.72,2.24C10.15,32.71,3.61,45.18,3,57.37c-.21,4.55.45,8.18,2,11.1,3.12,5.77,10.73,9.23,18.49,8.41,6.31-.67,12.7-3.65,20.12-9.38a1.5,1.5,0,0,1,1.83,2.37c-7.88,6.09-14.75,9.26-21.64,10A26.1,26.1,0,0,1,21.1,80Zm5.3-61a26.14,26.14,0,0,0,22.44,1.14,3.69,3.69,0,0,0,2.24-2.47,3.62,3.62,0,0,0-.64-3.17A5.12,5.12,0,0,0,46.83,13C39,12.1,31.71,15.43,26.4,19Z"/></g></g></svg>