<svg width="366" height="365" viewBox="0 0 366 365" fill="none" xmlns="http://www.w3.org/2000/svg">
<path fill-rule="evenodd" clip-rule="evenodd" d="M173.441 0.116731C136.783 2.16975 103.08 14.2214 74.0362 35.6626C62.018 44.5349 50.0156 56.0356 40.4786 67.8181C-14.8372 136.157 -13.3017 234.713 44.1163 301.323C75.5791 337.823 119.526 360.232 167.552 364.265C173.107 364.732 192.162 364.733 197.738 364.267C232.233 361.385 264.678 349.091 292.12 328.504C334.621 296.621 360.994 248.558 364.898 195.875C365.332 190.01 365.061 169.039 364.483 163.861C360.211 125.568 345.71 91.8718 321.317 63.5535C289.211 26.2816 245.174 4.18448 195.314 0.327202C191.326 0.0185251 177.558 -0.113858 173.441 0.116731ZM66.807 154.023C73.2635 155.127 79.1932 158.704 82.4263 163.445L83.1018 164.435L78.5556 167.03L74.0092 169.625L72.4527 168.073C66.0202 161.66 54.0223 163.466 50.1421 171.432C48.9362 173.907 48.6023 175.452 48.6224 178.462C48.6497 182.555 49.8504 185.555 52.5022 188.157C57.6325 193.191 67.8108 193.52 72.7522 188.812C73.7629 187.849 75.3356 185.513 75.3356 184.975C75.3356 184.902 72.5094 184.843 69.0552 184.843H62.7747V180.192V175.541H74.603H86.4313L86.3263 179.814C86.1801 185.767 85.1713 189.324 82.5244 193.217C77.6692 200.359 68.3565 203.851 58.4492 202.246C44.4697 199.982 35.4958 187.123 38.2274 173.27C40.7868 160.29 53.4781 151.743 66.807 154.023ZM199.429 154.232C202.862 155.122 206.363 157.334 208.736 160.112C209.808 161.366 211.345 163.772 211.335 164.18C211.33 164.373 203.545 169.036 202.676 169.367C202.449 169.453 202.138 169.138 201.657 168.335C199.826 165.277 196.505 163.73 192.996 164.3C190.359 164.729 189.154 165.945 189.299 168.027C189.461 170.337 191.249 171.467 198.455 173.809C203.309 175.387 205.078 176.127 207.084 177.418C211.112 180.01 213.073 183.982 212.779 188.953C212.258 197.746 205.384 202.833 194.448 202.516C186.323 202.281 180.715 199.223 177.489 193.268C176.192 190.875 175.878 191.315 181.01 188.341C183.509 186.893 185.597 185.708 185.651 185.708C185.704 185.708 186.091 186.317 186.51 187.06C188.43 190.47 191.339 192.063 195.639 192.059C200.22 192.054 202.476 190.435 201.933 187.542C201.585 185.691 199.48 184.482 193.473 182.684C189.321 181.44 188.019 180.965 186.002 179.957C182.459 178.187 180.13 175.59 178.937 172.08C178.323 170.274 178.361 165.803 179.008 163.752C180.545 158.881 184.928 155.171 190.525 154.007C192.441 153.608 197.518 153.736 199.429 154.232ZM237.545 154.232C240.978 155.122 244.479 157.334 246.852 160.112C247.924 161.366 249.461 163.772 249.451 164.18C249.446 164.373 241.661 169.036 240.792 169.367C240.565 169.453 240.254 169.138 239.773 168.335C237.942 165.277 234.621 163.73 231.112 164.3C228.475 164.729 227.27 165.945 227.415 168.027C227.577 170.337 229.365 171.467 236.571 173.809C241.425 175.387 243.194 176.127 245.2 177.418C249.228 180.01 251.189 183.982 250.895 188.953C250.374 197.746 243.5 202.833 232.564 202.516C224.439 202.281 218.831 199.223 215.605 193.268C214.308 190.875 213.994 191.315 219.126 188.341C221.625 186.893 223.713 185.708 223.767 185.708C223.82 185.708 224.207 186.317 224.625 187.06C226.546 190.47 229.455 192.063 233.755 192.059C238.336 192.054 240.592 190.435 240.049 187.542C239.701 185.691 237.596 184.482 231.589 182.684C227.437 181.44 226.135 180.965 224.118 179.957C220.575 178.187 218.246 175.59 217.053 172.08C216.439 170.274 216.477 165.803 217.124 163.752C218.661 158.881 223.044 155.171 228.641 154.007C230.557 153.608 235.634 153.736 237.545 154.232ZM115.292 155.057C125.552 157.983 130.515 169.489 125.324 178.315C124.402 179.883 121.227 183.07 119.895 183.765C119.329 184.06 118.866 184.376 118.866 184.466C118.866 184.557 121.099 188.475 123.829 193.173L128.793 201.715H122.984H117.175L112.697 193.928L108.218 186.141H105.746H103.273V193.928V201.715H97.8587H92.4445V178.126V154.537L103.219 154.611C112.592 154.676 114.162 154.734 115.292 155.057ZM166.825 175.487C170.738 186.998 174.356 197.608 174.865 199.065L175.791 201.715H169.866H163.941L162.783 198.092L161.625 194.469L152.842 194.412L144.059 194.356L142.893 198.036L141.727 201.715H135.796C130.235 201.715 129.874 201.692 130.011 201.337C130.091 201.129 133.604 190.835 137.817 178.462C142.031 166.089 145.591 155.649 145.728 155.262L145.979 154.559H152.845H159.711L166.825 175.487ZM285.19 159.751V164.942H275.986H266.782V168.836V172.729H275.12H283.457V177.921V183.112H275.12H266.782V187.222V191.332H276.202H285.623V196.524V201.715H270.788H255.953V178.137V154.559H270.572H285.19V159.751ZM314.535 155.057C324.795 157.983 329.758 169.489 324.567 178.315C323.644 179.883 320.469 183.07 319.137 183.765C318.571 184.06 318.108 184.376 318.108 184.466C318.108 184.557 320.342 188.475 323.072 193.173L328.035 201.715H322.226H316.417L311.939 193.928L307.461 186.141H304.988H302.515V193.928V201.715H297.101H291.687V178.126V154.537L302.461 154.611C311.834 154.676 313.405 154.734 314.535 155.057ZM103.273 170.783V176.839L107.442 176.838C113.313 176.837 114.53 176.38 115.86 173.683C117.434 170.488 116.377 166.796 113.465 165.321C112.296 164.728 112.272 164.726 107.782 164.726H103.273V170.783ZM302.515 170.783V176.839L306.684 176.838C312.556 176.837 313.773 176.38 315.102 173.683C316.677 170.488 315.62 166.796 312.708 165.321C311.539 164.728 311.515 164.726 307.025 164.726H302.515V170.783ZM150.1 175.5C148.637 180.103 147.443 183.942 147.447 184.032C147.45 184.121 149.896 184.194 152.882 184.194H158.31L158.165 183.707C157.411 181.173 152.982 167.395 152.885 167.28C152.815 167.197 151.562 170.896 150.1 175.5Z" fill="#374646"/>
</svg>
